<mxfile host="app.diagrams.net" modified="2022-05-07T09:32:53.585Z" agent="5.0 (Macintosh; Intel Mac OS X 10_15_7) AppleWebKit/605.1.15 (KHTML, like Gecko) Version/15.2 Safari/605.1.15" etag="Q-WUwRR9CaQ-lcHJJEF6" version="17.5.0" type="github" pages="5">
  <diagram id="a7r5-nS-ylqTmkWtMxSK" name="HighArchitecture">
    <mxGraphModel dx="1577" dy="932" grid="1" gridSize="10" guides="1" tooltips="1" connect="1" arrows="1" fold="1" page="1" pageScale="1" pageWidth="827" pageHeight="1169" math="0" shadow="0">
      <root>
        <mxCell id="0" />
        <mxCell id="1" parent="0" />
        <mxCell id="HSqZnOipHRx39nY64WQ3-6" value="" style="strokeWidth=3;html=1;shape=mxgraph.flowchart.annotation_2;align=left;labelPosition=right;pointerEvents=1;fontFamily=Helvetica;fontSize=18;rotation=-180;" parent="1" vertex="1">
          <mxGeometry x="240" y="240" width="40" height="240" as="geometry" />
        </mxCell>
        <mxCell id="HSqZnOipHRx39nY64WQ3-7" value="" style="rounded=0;whiteSpace=wrap;html=1;fontFamily=Helvetica;fontSize=20;fillColor=#f8cecc;strokeColor=#b85450;" parent="1" vertex="1">
          <mxGeometry x="440" y="80" width="160" height="1040" as="geometry" />
        </mxCell>
        <mxCell id="HSqZnOipHRx39nY64WQ3-8" value="" style="rounded=0;whiteSpace=wrap;html=1;fontFamily=Helvetica;fontSize=20;fillColor=#e1d5e7;strokeColor=#9673a6;" parent="1" vertex="1">
          <mxGeometry x="800" y="80" width="160" height="1040" as="geometry" />
        </mxCell>
        <mxCell id="HSqZnOipHRx39nY64WQ3-9" value="" style="rounded=0;whiteSpace=wrap;html=1;fontFamily=Helvetica;fontSize=20;fillColor=#d5e8d4;strokeColor=#82b366;" parent="1" vertex="1">
          <mxGeometry x="1160" y="80" width="160" height="1040" as="geometry" />
        </mxCell>
        <mxCell id="HSqZnOipHRx39nY64WQ3-10" value="USER &amp;nbsp;INTERFACE-ReactJs" style="text;html=1;strokeColor=none;fillColor=none;align=center;verticalAlign=middle;whiteSpace=wrap;rounded=0;fontStyle=1;fontFamily=Helvetica;fontSize=20;" parent="1" vertex="1">
          <mxGeometry x="450" y="370" width="140" height="30" as="geometry" />
        </mxCell>
        <mxCell id="HSqZnOipHRx39nY64WQ3-11" value="SERVER SIDE - NodeJs" style="text;html=1;strokeColor=none;fillColor=none;align=center;verticalAlign=middle;whiteSpace=wrap;rounded=0;fontStyle=1;fontFamily=Helvetica;fontSize=20;" parent="1" vertex="1">
          <mxGeometry x="810" y="390" width="140" height="30" as="geometry" />
        </mxCell>
        <mxCell id="HSqZnOipHRx39nY64WQ3-12" value="MySQL DATABASE" style="text;html=1;strokeColor=none;fillColor=none;align=center;verticalAlign=middle;whiteSpace=wrap;rounded=0;fontStyle=1;fontFamily=Helvetica;fontSize=20;" parent="1" vertex="1">
          <mxGeometry x="1170" y="390" width="140" height="30" as="geometry" />
        </mxCell>
        <mxCell id="HSqZnOipHRx39nY64WQ3-13" value="" style="endArrow=classic;html=1;rounded=0;fontFamily=Helvetica;fontSize=20;strokeWidth=3;" parent="1" edge="1">
          <mxGeometry width="50" height="50" relative="1" as="geometry">
            <mxPoint x="260" y="250" as="sourcePoint" />
            <mxPoint x="430" y="250" as="targetPoint" />
          </mxGeometry>
        </mxCell>
        <mxCell id="HSqZnOipHRx39nY64WQ3-15" value="VIEWING POSSIBLE OFFENCES" style="text;html=1;strokeColor=none;fillColor=none;align=center;verticalAlign=middle;whiteSpace=wrap;rounded=0;fontFamily=Tahoma;fontSize=12;fontStyle=1" parent="1" vertex="1">
          <mxGeometry x="270" y="220" width="160" height="20" as="geometry" />
        </mxCell>
        <mxCell id="HSqZnOipHRx39nY64WQ3-19" value="" style="endArrow=classic;html=1;rounded=0;fontFamily=Helvetica;fontSize=20;strokeWidth=3;" parent="1" edge="1">
          <mxGeometry width="50" height="50" relative="1" as="geometry">
            <mxPoint x="440.0000000000002" y="300" as="sourcePoint" />
            <mxPoint x="260" y="300" as="targetPoint" />
          </mxGeometry>
        </mxCell>
        <mxCell id="HSqZnOipHRx39nY64WQ3-24" value="SHOW OFFENCE LIST" style="text;html=1;strokeColor=none;fillColor=none;align=center;verticalAlign=middle;whiteSpace=wrap;rounded=0;fontFamily=Tahoma;fontSize=12;fontStyle=1;fontColor=#FF0000;" parent="1" vertex="1">
          <mxGeometry x="270" y="270" width="160" height="20" as="geometry" />
        </mxCell>
        <mxCell id="HSqZnOipHRx39nY64WQ3-26" value="" style="rounded=0;whiteSpace=wrap;html=1;fontFamily=Tahoma;fontSize=12;fillColor=#dae8fc;strokeColor=#6c8ebf;" parent="1" vertex="1">
          <mxGeometry x="80" y="440" width="160" height="680" as="geometry" />
        </mxCell>
        <mxCell id="HSqZnOipHRx39nY64WQ3-28" value="ADMIN" style="text;html=1;strokeColor=none;fillColor=none;align=center;verticalAlign=middle;whiteSpace=wrap;rounded=0;fontStyle=1;fontFamily=Helvetica;fontSize=20;" parent="1" vertex="1">
          <mxGeometry x="130" y="585" width="60" height="30" as="geometry" />
        </mxCell>
        <mxCell id="HSqZnOipHRx39nY64WQ3-29" value="" style="rounded=0;whiteSpace=wrap;html=1;fontFamily=Tahoma;fontSize=12;fillColor=#dae8fc;strokeColor=#6c8ebf;" parent="1" vertex="1">
          <mxGeometry x="80" y="80" width="160" height="320" as="geometry" />
        </mxCell>
        <mxCell id="HSqZnOipHRx39nY64WQ3-30" value="STUDENT" style="text;html=1;strokeColor=none;fillColor=none;align=center;verticalAlign=middle;whiteSpace=wrap;rounded=0;fontStyle=1;fontFamily=Helvetica;fontSize=20;" parent="1" vertex="1">
          <mxGeometry x="130" y="225" width="60" height="30" as="geometry" />
        </mxCell>
        <mxCell id="HSqZnOipHRx39nY64WQ3-32" value="" style="endArrow=classic;html=1;rounded=0;fontFamily=Helvetica;fontSize=20;strokeWidth=3;" parent="1" edge="1">
          <mxGeometry width="50" height="50" relative="1" as="geometry">
            <mxPoint x="270" y="359.1700000000002" as="sourcePoint" />
            <mxPoint x="440" y="359.1700000000002" as="targetPoint" />
          </mxGeometry>
        </mxCell>
        <mxCell id="HSqZnOipHRx39nY64WQ3-33" value="SUBMITTING OFFENCES" style="text;html=1;strokeColor=none;fillColor=none;align=center;verticalAlign=middle;whiteSpace=wrap;rounded=0;fontFamily=Tahoma;fontSize=12;fontStyle=1" parent="1" vertex="1">
          <mxGeometry x="270" y="330" width="160" height="20" as="geometry" />
        </mxCell>
        <mxCell id="HSqZnOipHRx39nY64WQ3-34" value="" style="endArrow=classic;html=1;rounded=0;fontFamily=Helvetica;fontSize=20;strokeWidth=3;" parent="1" edge="1">
          <mxGeometry width="50" height="50" relative="1" as="geometry">
            <mxPoint x="440" y="418.33000000000027" as="sourcePoint" />
            <mxPoint x="260" y="418.33000000000027" as="targetPoint" />
          </mxGeometry>
        </mxCell>
        <mxCell id="HSqZnOipHRx39nY64WQ3-36" value="SUCCESS / ERROR MESSAGE" style="text;html=1;strokeColor=none;fillColor=none;align=center;verticalAlign=middle;whiteSpace=wrap;rounded=0;fontFamily=Tahoma;fontSize=12;fontStyle=1;fontColor=#FF0000;" parent="1" vertex="1">
          <mxGeometry x="270" y="390" width="160" height="20" as="geometry" />
        </mxCell>
        <mxCell id="HSqZnOipHRx39nY64WQ3-38" value="SUBMIT TEST" style="text;html=1;strokeColor=none;fillColor=none;align=center;verticalAlign=middle;whiteSpace=wrap;rounded=0;fontFamily=Tahoma;fontSize=12;fontStyle=1" parent="1" vertex="1">
          <mxGeometry x="270" y="90" width="160" height="20" as="geometry" />
        </mxCell>
        <mxCell id="HSqZnOipHRx39nY64WQ3-41" value="DISPLAY PLEDGE AVAILIBLE FOR DOWNLOAD" style="text;html=1;strokeColor=none;fillColor=none;align=center;verticalAlign=middle;whiteSpace=wrap;rounded=0;fontFamily=Tahoma;fontSize=12;fontStyle=1;fontColor=#FF0000;" parent="1" vertex="1">
          <mxGeometry x="250" y="150" width="190" height="20" as="geometry" />
        </mxCell>
        <mxCell id="HSqZnOipHRx39nY64WQ3-44" value="" style="endArrow=classic;html=1;rounded=0;fontFamily=Helvetica;fontSize=20;strokeWidth=3;" parent="1" edge="1">
          <mxGeometry width="50" height="50" relative="1" as="geometry">
            <mxPoint x="240" y="120.00000000000023" as="sourcePoint" />
            <mxPoint x="440" y="120" as="targetPoint" />
          </mxGeometry>
        </mxCell>
        <mxCell id="HSqZnOipHRx39nY64WQ3-45" value="" style="endArrow=classic;html=1;rounded=0;fontFamily=Helvetica;fontSize=20;strokeWidth=3;" parent="1" edge="1">
          <mxGeometry width="50" height="50" relative="1" as="geometry">
            <mxPoint x="440" y="180.00000000000023" as="sourcePoint" />
            <mxPoint x="250" y="180" as="targetPoint" />
          </mxGeometry>
        </mxCell>
        <mxCell id="HSqZnOipHRx39nY64WQ3-46" value="" style="endArrow=classic;html=1;rounded=0;fontFamily=Helvetica;fontSize=20;strokeWidth=3;" parent="1" edge="1">
          <mxGeometry width="50" height="50" relative="1" as="geometry">
            <mxPoint x="240" y="520.0000000000002" as="sourcePoint" />
            <mxPoint x="430" y="520" as="targetPoint" />
          </mxGeometry>
        </mxCell>
        <mxCell id="HSqZnOipHRx39nY64WQ3-48" value="SUBMIT TEST DETAILS AND SELECT PLEDGE" style="text;html=1;strokeColor=none;fillColor=none;align=center;verticalAlign=middle;whiteSpace=wrap;rounded=0;fontFamily=Tahoma;fontSize=12;fontStyle=1" parent="1" vertex="1">
          <mxGeometry x="254" y="490" width="160" height="20" as="geometry" />
        </mxCell>
        <mxCell id="HSqZnOipHRx39nY64WQ3-49" value="" style="endArrow=classic;html=1;rounded=0;fontFamily=Helvetica;fontSize=20;strokeWidth=3;" parent="1" edge="1">
          <mxGeometry width="50" height="50" relative="1" as="geometry">
            <mxPoint x="440" y="560.0000000000002" as="sourcePoint" />
            <mxPoint x="250" y="560.0000000000002" as="targetPoint" />
          </mxGeometry>
        </mxCell>
        <mxCell id="HSqZnOipHRx39nY64WQ3-50" value="SUCCESS / ERROR MESSAGE" style="text;html=1;strokeColor=none;fillColor=none;align=center;verticalAlign=middle;whiteSpace=wrap;rounded=0;fontFamily=Tahoma;fontSize=12;fontStyle=1;fontColor=#FF0000;" parent="1" vertex="1">
          <mxGeometry x="254" y="530" width="160" height="20" as="geometry" />
        </mxCell>
        <mxCell id="HSqZnOipHRx39nY64WQ3-51" value="" style="endArrow=classic;html=1;rounded=0;fontFamily=Helvetica;fontSize=20;strokeWidth=3;" parent="1" edge="1">
          <mxGeometry width="50" height="50" relative="1" as="geometry">
            <mxPoint x="240" y="599.1700000000002" as="sourcePoint" />
            <mxPoint x="430" y="599.1700000000002" as="targetPoint" />
          </mxGeometry>
        </mxCell>
        <mxCell id="HSqZnOipHRx39nY64WQ3-52" value="VIEW PLEDGES" style="text;html=1;strokeColor=none;fillColor=none;align=center;verticalAlign=middle;whiteSpace=wrap;rounded=0;fontFamily=Tahoma;fontSize=12;fontStyle=1" parent="1" vertex="1">
          <mxGeometry x="254" y="574.5" width="160" height="20" as="geometry" />
        </mxCell>
        <mxCell id="HSqZnOipHRx39nY64WQ3-54" value="" style="endArrow=classic;html=1;rounded=0;fontFamily=Helvetica;fontSize=20;strokeWidth=3;" parent="1" edge="1">
          <mxGeometry width="50" height="50" relative="1" as="geometry">
            <mxPoint x="440" y="640.0000000000002" as="sourcePoint" />
            <mxPoint x="250" y="640.0000000000002" as="targetPoint" />
          </mxGeometry>
        </mxCell>
        <mxCell id="HSqZnOipHRx39nY64WQ3-55" value="SHOW PLEDGES" style="text;html=1;strokeColor=none;fillColor=none;align=center;verticalAlign=middle;whiteSpace=wrap;rounded=0;fontFamily=Tahoma;fontSize=12;fontStyle=1;fontColor=#FF0000;" parent="1" vertex="1">
          <mxGeometry x="254" y="615" width="160" height="20" as="geometry" />
        </mxCell>
        <mxCell id="HSqZnOipHRx39nY64WQ3-56" value="" style="endArrow=classic;html=1;rounded=0;fontFamily=Helvetica;fontSize=20;strokeWidth=3;" parent="1" edge="1">
          <mxGeometry width="50" height="50" relative="1" as="geometry">
            <mxPoint x="240" y="680.0000000000002" as="sourcePoint" />
            <mxPoint x="430" y="680.0000000000002" as="targetPoint" />
          </mxGeometry>
        </mxCell>
        <mxCell id="HSqZnOipHRx39nY64WQ3-57" value="CREATE SIGNED PLEDGE" style="text;html=1;strokeColor=none;fillColor=none;align=center;verticalAlign=middle;whiteSpace=wrap;rounded=0;fontFamily=Tahoma;fontSize=12;fontStyle=1" parent="1" vertex="1">
          <mxGeometry x="265" y="650" width="160" height="20" as="geometry" />
        </mxCell>
        <mxCell id="HSqZnOipHRx39nY64WQ3-59" value="" style="endArrow=classic;html=1;rounded=0;fontFamily=Helvetica;fontSize=20;strokeWidth=3;" parent="1" edge="1">
          <mxGeometry width="50" height="50" relative="1" as="geometry">
            <mxPoint x="440" y="720.0000000000002" as="sourcePoint" />
            <mxPoint x="250" y="720.0000000000002" as="targetPoint" />
          </mxGeometry>
        </mxCell>
        <mxCell id="HSqZnOipHRx39nY64WQ3-60" value="SUCCESS / ERROR MESSAGE" style="text;html=1;strokeColor=none;fillColor=none;align=center;verticalAlign=middle;whiteSpace=wrap;rounded=0;fontFamily=Tahoma;fontSize=12;fontStyle=1;fontColor=#FF0000;" parent="1" vertex="1">
          <mxGeometry x="265" y="690" width="160" height="20" as="geometry" />
        </mxCell>
        <mxCell id="HSqZnOipHRx39nY64WQ3-61" value="" style="endArrow=classic;html=1;rounded=0;fontFamily=Helvetica;fontSize=20;strokeWidth=3;" parent="1" edge="1">
          <mxGeometry width="50" height="50" relative="1" as="geometry">
            <mxPoint x="240" y="760.0000000000002" as="sourcePoint" />
            <mxPoint x="430" y="760.0000000000002" as="targetPoint" />
          </mxGeometry>
        </mxCell>
        <mxCell id="HSqZnOipHRx39nY64WQ3-62" value="VIEW TEST REPORT" style="text;html=1;strokeColor=none;fillColor=none;align=center;verticalAlign=middle;whiteSpace=wrap;rounded=0;fontFamily=Tahoma;fontSize=12;fontStyle=1" parent="1" vertex="1">
          <mxGeometry x="265" y="730" width="160" height="20" as="geometry" />
        </mxCell>
        <mxCell id="HSqZnOipHRx39nY64WQ3-63" value="" style="endArrow=classic;html=1;rounded=0;fontFamily=Helvetica;fontSize=20;strokeWidth=3;" parent="1" edge="1">
          <mxGeometry width="50" height="50" relative="1" as="geometry">
            <mxPoint x="440" y="800.0000000000002" as="sourcePoint" />
            <mxPoint x="250" y="800.0000000000002" as="targetPoint" />
          </mxGeometry>
        </mxCell>
        <mxCell id="HSqZnOipHRx39nY64WQ3-64" value="SHOW TEST REPORT" style="text;html=1;strokeColor=none;fillColor=none;align=center;verticalAlign=middle;whiteSpace=wrap;rounded=0;fontFamily=Tahoma;fontSize=12;fontStyle=1;fontColor=#FF0000;" parent="1" vertex="1">
          <mxGeometry x="254" y="770" width="160" height="20" as="geometry" />
        </mxCell>
        <mxCell id="HSqZnOipHRx39nY64WQ3-65" value="" style="endArrow=classic;html=1;rounded=0;fontFamily=Helvetica;fontSize=20;strokeWidth=3;" parent="1" edge="1">
          <mxGeometry width="50" height="50" relative="1" as="geometry">
            <mxPoint x="240" y="840.0000000000002" as="sourcePoint" />
            <mxPoint x="430" y="840.0000000000002" as="targetPoint" />
          </mxGeometry>
        </mxCell>
        <mxCell id="HSqZnOipHRx39nY64WQ3-66" value="VIEW CALENDAR TO SCHEDULE HEARING" style="text;html=1;strokeColor=none;fillColor=none;align=center;verticalAlign=middle;whiteSpace=wrap;rounded=0;fontFamily=Tahoma;fontSize=12;fontStyle=1" parent="1" vertex="1">
          <mxGeometry x="265" y="810" width="160" height="20" as="geometry" />
        </mxCell>
        <mxCell id="HSqZnOipHRx39nY64WQ3-67" value="" style="endArrow=classic;html=1;rounded=0;fontFamily=Helvetica;fontSize=20;strokeWidth=3;" parent="1" edge="1">
          <mxGeometry width="50" height="50" relative="1" as="geometry">
            <mxPoint x="440" y="880.0000000000002" as="sourcePoint" />
            <mxPoint x="250" y="880.0000000000002" as="targetPoint" />
          </mxGeometry>
        </mxCell>
        <mxCell id="HSqZnOipHRx39nY64WQ3-68" value="SHOW CALENDAR" style="text;html=1;strokeColor=none;fillColor=none;align=center;verticalAlign=middle;whiteSpace=wrap;rounded=0;fontFamily=Tahoma;fontSize=12;fontStyle=1;fontColor=#FF0000;" parent="1" vertex="1">
          <mxGeometry x="270" y="850" width="160" height="20" as="geometry" />
        </mxCell>
        <mxCell id="HSqZnOipHRx39nY64WQ3-70" value="" style="endArrow=classic;html=1;rounded=0;fontFamily=Helvetica;fontSize=20;strokeWidth=3;" parent="1" edge="1">
          <mxGeometry width="50" height="50" relative="1" as="geometry">
            <mxPoint x="240" y="920.0000000000002" as="sourcePoint" />
            <mxPoint x="430" y="920.0000000000002" as="targetPoint" />
          </mxGeometry>
        </mxCell>
        <mxCell id="HSqZnOipHRx39nY64WQ3-71" value="SUBMIT ADDITIONAL EVIDENCE" style="text;html=1;strokeColor=none;fillColor=none;align=center;verticalAlign=middle;whiteSpace=wrap;rounded=0;fontFamily=Tahoma;fontSize=12;fontStyle=1" parent="1" vertex="1">
          <mxGeometry x="254" y="890" width="160" height="20" as="geometry" />
        </mxCell>
        <mxCell id="HSqZnOipHRx39nY64WQ3-72" value="" style="endArrow=classic;html=1;rounded=0;fontFamily=Helvetica;fontSize=20;strokeWidth=3;" parent="1" edge="1">
          <mxGeometry width="50" height="50" relative="1" as="geometry">
            <mxPoint x="440" y="960.0000000000002" as="sourcePoint" />
            <mxPoint x="250" y="960.0000000000002" as="targetPoint" />
          </mxGeometry>
        </mxCell>
        <mxCell id="HSqZnOipHRx39nY64WQ3-74" value="SUCCESS / ERROR MESSAGE" style="text;html=1;strokeColor=none;fillColor=none;align=center;verticalAlign=middle;whiteSpace=wrap;rounded=0;fontFamily=Tahoma;fontSize=12;fontStyle=1;fontColor=#FF0000;" parent="1" vertex="1">
          <mxGeometry x="265" y="930" width="160" height="20" as="geometry" />
        </mxCell>
        <mxCell id="HSqZnOipHRx39nY64WQ3-75" value="" style="endArrow=classic;html=1;rounded=0;fontFamily=Helvetica;fontSize=20;strokeWidth=3;" parent="1" edge="1">
          <mxGeometry width="50" height="50" relative="1" as="geometry">
            <mxPoint x="240" y="1000" as="sourcePoint" />
            <mxPoint x="430" y="1000" as="targetPoint" />
          </mxGeometry>
        </mxCell>
        <mxCell id="HSqZnOipHRx39nY64WQ3-76" value="EDITING OFFENCE LIST" style="text;html=1;strokeColor=none;fillColor=none;align=center;verticalAlign=middle;whiteSpace=wrap;rounded=0;fontFamily=Tahoma;fontSize=12;fontStyle=1" parent="1" vertex="1">
          <mxGeometry x="270" y="970" width="160" height="20" as="geometry" />
        </mxCell>
        <mxCell id="HSqZnOipHRx39nY64WQ3-77" value="" style="endArrow=classic;html=1;rounded=0;fontFamily=Helvetica;fontSize=20;strokeWidth=3;" parent="1" edge="1">
          <mxGeometry width="50" height="50" relative="1" as="geometry">
            <mxPoint x="440" y="1040" as="sourcePoint" />
            <mxPoint x="250" y="1040" as="targetPoint" />
          </mxGeometry>
        </mxCell>
        <mxCell id="HSqZnOipHRx39nY64WQ3-78" value="VIEW CHANGE ON NEW LIST" style="text;html=1;strokeColor=none;fillColor=none;align=center;verticalAlign=middle;whiteSpace=wrap;rounded=0;fontFamily=Tahoma;fontSize=12;fontStyle=1;fontColor=#FF0000;" parent="1" vertex="1">
          <mxGeometry x="254" y="1010" width="160" height="20" as="geometry" />
        </mxCell>
        <mxCell id="HSqZnOipHRx39nY64WQ3-79" value="" style="endArrow=classic;html=1;rounded=0;fontFamily=Helvetica;fontSize=20;strokeWidth=3;" parent="1" edge="1">
          <mxGeometry width="50" height="50" relative="1" as="geometry">
            <mxPoint x="240" y="1080" as="sourcePoint" />
            <mxPoint x="430" y="1080" as="targetPoint" />
          </mxGeometry>
        </mxCell>
        <mxCell id="HSqZnOipHRx39nY64WQ3-80" value="VIEW SUBMITTED OFFENCES" style="text;html=1;strokeColor=none;fillColor=none;align=center;verticalAlign=middle;whiteSpace=wrap;rounded=0;fontFamily=Tahoma;fontSize=12;fontStyle=1" parent="1" vertex="1">
          <mxGeometry x="254" y="1050" width="160" height="20" as="geometry" />
        </mxCell>
        <mxCell id="HSqZnOipHRx39nY64WQ3-81" value="" style="endArrow=classic;html=1;rounded=0;fontFamily=Helvetica;fontSize=20;strokeWidth=3;" parent="1" edge="1">
          <mxGeometry width="50" height="50" relative="1" as="geometry">
            <mxPoint x="440" y="1118.33" as="sourcePoint" />
            <mxPoint x="250" y="1118.33" as="targetPoint" />
          </mxGeometry>
        </mxCell>
        <mxCell id="HSqZnOipHRx39nY64WQ3-82" value="SHOW LIST OF SUBMITTED OFFENCES" style="text;html=1;strokeColor=none;fillColor=none;align=center;verticalAlign=middle;whiteSpace=wrap;rounded=0;fontFamily=Tahoma;fontSize=12;fontStyle=1;fontColor=#FF0000;" parent="1" vertex="1">
          <mxGeometry x="265" y="1090" width="160" height="20" as="geometry" />
        </mxCell>
        <mxCell id="HSqZnOipHRx39nY64WQ3-83" value="" style="endArrow=classic;html=1;rounded=0;fontFamily=Helvetica;fontSize=20;strokeWidth=3;" parent="1" edge="1">
          <mxGeometry width="50" height="50" relative="1" as="geometry">
            <mxPoint x="600" y="120.00000000000023" as="sourcePoint" />
            <mxPoint x="800" y="120" as="targetPoint" />
          </mxGeometry>
        </mxCell>
        <mxCell id="HSqZnOipHRx39nY64WQ3-84" value="SEND TEST DATA TO BACK-END" style="text;html=1;strokeColor=none;fillColor=none;align=center;verticalAlign=middle;whiteSpace=wrap;rounded=0;fontFamily=Tahoma;fontSize=12;fontStyle=1" parent="1" vertex="1">
          <mxGeometry x="620" y="90" width="160" height="20" as="geometry" />
        </mxCell>
        <mxCell id="HSqZnOipHRx39nY64WQ3-85" value="" style="endArrow=classic;html=1;rounded=0;fontFamily=Helvetica;fontSize=20;strokeWidth=3;" parent="1" edge="1">
          <mxGeometry width="50" height="50" relative="1" as="geometry">
            <mxPoint x="800" y="159" as="sourcePoint" />
            <mxPoint x="600" y="159" as="targetPoint" />
          </mxGeometry>
        </mxCell>
        <mxCell id="HSqZnOipHRx39nY64WQ3-86" value="RETURN PLEDGE FILE" style="text;html=1;strokeColor=none;fillColor=none;align=center;verticalAlign=middle;whiteSpace=wrap;rounded=0;fontFamily=Tahoma;fontSize=12;fontStyle=1;fontColor=#FF0000;" parent="1" vertex="1">
          <mxGeometry x="605" y="130" width="190" height="20" as="geometry" />
        </mxCell>
        <mxCell id="HSqZnOipHRx39nY64WQ3-87" value="" style="endArrow=classic;html=1;rounded=0;fontFamily=Helvetica;fontSize=20;strokeWidth=3;" parent="1" edge="1">
          <mxGeometry width="50" height="50" relative="1" as="geometry">
            <mxPoint x="600" y="240.00000000000023" as="sourcePoint" />
            <mxPoint x="800" y="240" as="targetPoint" />
          </mxGeometry>
        </mxCell>
        <mxCell id="HSqZnOipHRx39nY64WQ3-88" value="REQUEST OFFENCE LIST" style="text;html=1;strokeColor=none;fillColor=none;align=center;verticalAlign=middle;whiteSpace=wrap;rounded=0;fontFamily=Tahoma;fontSize=12;fontStyle=1" parent="1" vertex="1">
          <mxGeometry x="620" y="210" width="160" height="20" as="geometry" />
        </mxCell>
        <mxCell id="HSqZnOipHRx39nY64WQ3-90" value="" style="endArrow=classic;html=1;rounded=0;fontFamily=Helvetica;fontSize=20;strokeWidth=3;" parent="1" edge="1">
          <mxGeometry width="50" height="50" relative="1" as="geometry">
            <mxPoint x="800" y="300" as="sourcePoint" />
            <mxPoint x="600" y="300" as="targetPoint" />
          </mxGeometry>
        </mxCell>
        <mxCell id="HSqZnOipHRx39nY64WQ3-91" value="RETURN OFFENCE LIST" style="text;html=1;strokeColor=none;fillColor=none;align=center;verticalAlign=middle;whiteSpace=wrap;rounded=0;fontFamily=Tahoma;fontSize=12;fontStyle=1;fontColor=#FF0000;" parent="1" vertex="1">
          <mxGeometry x="605" y="270" width="190" height="20" as="geometry" />
        </mxCell>
        <mxCell id="HSqZnOipHRx39nY64WQ3-92" value="" style="endArrow=classic;html=1;rounded=0;fontFamily=Helvetica;fontSize=20;strokeWidth=3;" parent="1" edge="1">
          <mxGeometry width="50" height="50" relative="1" as="geometry">
            <mxPoint x="600" y="359.0000000000002" as="sourcePoint" />
            <mxPoint x="800" y="359" as="targetPoint" />
          </mxGeometry>
        </mxCell>
        <mxCell id="HSqZnOipHRx39nY64WQ3-93" value="SEND TICKET DATA TO BACK-END" style="text;html=1;strokeColor=none;fillColor=none;align=center;verticalAlign=middle;whiteSpace=wrap;rounded=0;fontFamily=Tahoma;fontSize=12;fontStyle=1" parent="1" vertex="1">
          <mxGeometry x="620" y="330" width="160" height="20" as="geometry" />
        </mxCell>
        <mxCell id="HSqZnOipHRx39nY64WQ3-95" value="" style="endArrow=classic;html=1;rounded=0;fontFamily=Helvetica;fontSize=20;strokeWidth=3;" parent="1" edge="1">
          <mxGeometry width="50" height="50" relative="1" as="geometry">
            <mxPoint x="800" y="418" as="sourcePoint" />
            <mxPoint x="600" y="418" as="targetPoint" />
          </mxGeometry>
        </mxCell>
        <mxCell id="HSqZnOipHRx39nY64WQ3-97" value="SUCCESS / ERROR MESSAGE" style="text;html=1;strokeColor=none;fillColor=none;align=center;verticalAlign=middle;whiteSpace=wrap;rounded=0;fontFamily=Tahoma;fontSize=12;fontStyle=1;fontColor=#FF0000;" parent="1" vertex="1">
          <mxGeometry x="620" y="380" width="160" height="20" as="geometry" />
        </mxCell>
        <mxCell id="HSqZnOipHRx39nY64WQ3-98" value="" style="endArrow=classic;html=1;rounded=0;fontFamily=Helvetica;fontSize=20;strokeWidth=3;" parent="1" edge="1">
          <mxGeometry width="50" height="50" relative="1" as="geometry">
            <mxPoint x="600" y="520.0000000000002" as="sourcePoint" />
            <mxPoint x="800" y="520" as="targetPoint" />
          </mxGeometry>
        </mxCell>
        <mxCell id="HSqZnOipHRx39nY64WQ3-101" value="SENDS TEST DETAILS AND PLEEDGE ID TO BACK-END" style="text;html=1;strokeColor=none;fillColor=none;align=center;verticalAlign=middle;whiteSpace=wrap;rounded=0;fontFamily=Tahoma;fontSize=12;fontStyle=1" parent="1" vertex="1">
          <mxGeometry x="600" y="490" width="190" height="20" as="geometry" />
        </mxCell>
        <mxCell id="HSqZnOipHRx39nY64WQ3-102" value="" style="endArrow=classic;html=1;rounded=0;fontFamily=Helvetica;fontSize=20;strokeWidth=3;" parent="1" edge="1">
          <mxGeometry width="50" height="50" relative="1" as="geometry">
            <mxPoint x="800" y="560" as="sourcePoint" />
            <mxPoint x="600" y="560" as="targetPoint" />
          </mxGeometry>
        </mxCell>
        <mxCell id="HSqZnOipHRx39nY64WQ3-103" value="RETURN SUBMITTED OFFENCES" style="text;html=1;strokeColor=none;fillColor=none;align=center;verticalAlign=middle;whiteSpace=wrap;rounded=0;fontFamily=Tahoma;fontSize=12;fontStyle=1;fontColor=#FF0000;" parent="1" vertex="1">
          <mxGeometry x="620" y="1090" width="160" height="20" as="geometry" />
        </mxCell>
        <mxCell id="HSqZnOipHRx39nY64WQ3-104" value="SUCCESS / ERROR MESSAGE" style="text;html=1;strokeColor=none;fillColor=none;align=center;verticalAlign=middle;whiteSpace=wrap;rounded=0;fontFamily=Tahoma;fontSize=12;fontStyle=1;fontColor=#FF0000;" parent="1" vertex="1">
          <mxGeometry x="620" y="530" width="160" height="20" as="geometry" />
        </mxCell>
        <mxCell id="HSqZnOipHRx39nY64WQ3-105" value="" style="endArrow=classic;html=1;rounded=0;fontFamily=Helvetica;fontSize=20;strokeWidth=3;" parent="1" edge="1">
          <mxGeometry width="50" height="50" relative="1" as="geometry">
            <mxPoint x="600" y="599.0000000000002" as="sourcePoint" />
            <mxPoint x="800" y="599" as="targetPoint" />
          </mxGeometry>
        </mxCell>
        <mxCell id="HSqZnOipHRx39nY64WQ3-106" value="REQUEST PLEDGE" style="text;html=1;strokeColor=none;fillColor=none;align=center;verticalAlign=middle;whiteSpace=wrap;rounded=0;fontFamily=Tahoma;fontSize=12;fontStyle=1" parent="1" vertex="1">
          <mxGeometry x="620" y="574.5" width="160" height="20" as="geometry" />
        </mxCell>
        <mxCell id="HSqZnOipHRx39nY64WQ3-107" value="" style="endArrow=classic;html=1;rounded=0;fontFamily=Helvetica;fontSize=20;strokeWidth=3;" parent="1" edge="1">
          <mxGeometry width="50" height="50" relative="1" as="geometry">
            <mxPoint x="800" y="640" as="sourcePoint" />
            <mxPoint x="600" y="640" as="targetPoint" />
          </mxGeometry>
        </mxCell>
        <mxCell id="HSqZnOipHRx39nY64WQ3-108" value="RETURN PLEDGE" style="text;html=1;strokeColor=none;fillColor=none;align=center;verticalAlign=middle;whiteSpace=wrap;rounded=0;fontFamily=Tahoma;fontSize=12;fontStyle=1;fontColor=#FF0000;" parent="1" vertex="1">
          <mxGeometry x="620" y="615" width="160" height="20" as="geometry" />
        </mxCell>
        <mxCell id="HSqZnOipHRx39nY64WQ3-109" value="" style="endArrow=classic;html=1;rounded=0;fontFamily=Helvetica;fontSize=20;strokeWidth=3;" parent="1" edge="1">
          <mxGeometry width="50" height="50" relative="1" as="geometry">
            <mxPoint x="600" y="680.0000000000002" as="sourcePoint" />
            <mxPoint x="800" y="680" as="targetPoint" />
          </mxGeometry>
        </mxCell>
        <mxCell id="HSqZnOipHRx39nY64WQ3-110" value="RECIEVES AND SAVES THE FILE" style="text;html=1;strokeColor=none;fillColor=none;align=center;verticalAlign=middle;whiteSpace=wrap;rounded=0;fontFamily=Tahoma;fontSize=12;fontStyle=1" parent="1" vertex="1">
          <mxGeometry x="620" y="650" width="160" height="20" as="geometry" />
        </mxCell>
        <mxCell id="HSqZnOipHRx39nY64WQ3-111" value="" style="endArrow=classic;html=1;rounded=0;fontFamily=Helvetica;fontSize=20;strokeWidth=3;" parent="1" edge="1">
          <mxGeometry width="50" height="50" relative="1" as="geometry">
            <mxPoint x="800" y="720" as="sourcePoint" />
            <mxPoint x="600" y="720" as="targetPoint" />
          </mxGeometry>
        </mxCell>
        <mxCell id="HSqZnOipHRx39nY64WQ3-112" value="SUCCESS / ERROR MESSAGE" style="text;html=1;strokeColor=none;fillColor=none;align=center;verticalAlign=middle;whiteSpace=wrap;rounded=0;fontFamily=Tahoma;fontSize=12;fontStyle=1;fontColor=#FF0000;" parent="1" vertex="1">
          <mxGeometry x="620" y="690" width="160" height="20" as="geometry" />
        </mxCell>
        <mxCell id="HSqZnOipHRx39nY64WQ3-115" value="" style="endArrow=classic;html=1;rounded=0;fontFamily=Helvetica;fontSize=20;strokeWidth=3;" parent="1" edge="1">
          <mxGeometry width="50" height="50" relative="1" as="geometry">
            <mxPoint x="600" y="760.0000000000002" as="sourcePoint" />
            <mxPoint x="800" y="760" as="targetPoint" />
          </mxGeometry>
        </mxCell>
        <mxCell id="HSqZnOipHRx39nY64WQ3-116" value="REQUEST TEST REPORT" style="text;html=1;strokeColor=none;fillColor=none;align=center;verticalAlign=middle;whiteSpace=wrap;rounded=0;fontFamily=Tahoma;fontSize=12;fontStyle=1" parent="1" vertex="1">
          <mxGeometry x="620" y="730" width="160" height="20" as="geometry" />
        </mxCell>
        <mxCell id="HSqZnOipHRx39nY64WQ3-117" value="" style="endArrow=classic;html=1;rounded=0;fontFamily=Helvetica;fontSize=20;strokeWidth=3;" parent="1" edge="1">
          <mxGeometry width="50" height="50" relative="1" as="geometry">
            <mxPoint x="800" y="800" as="sourcePoint" />
            <mxPoint x="600" y="800" as="targetPoint" />
          </mxGeometry>
        </mxCell>
        <mxCell id="HSqZnOipHRx39nY64WQ3-118" value="RETURN TEST REPORT" style="text;html=1;strokeColor=none;fillColor=none;align=center;verticalAlign=middle;whiteSpace=wrap;rounded=0;fontFamily=Tahoma;fontSize=12;fontStyle=1;fontColor=#FF0000;" parent="1" vertex="1">
          <mxGeometry x="620" y="770" width="160" height="20" as="geometry" />
        </mxCell>
        <mxCell id="HSqZnOipHRx39nY64WQ3-119" value="" style="endArrow=classic;html=1;rounded=0;fontFamily=Helvetica;fontSize=20;strokeWidth=3;" parent="1" edge="1">
          <mxGeometry width="50" height="50" relative="1" as="geometry">
            <mxPoint x="600" y="840.0000000000002" as="sourcePoint" />
            <mxPoint x="800" y="840" as="targetPoint" />
          </mxGeometry>
        </mxCell>
        <mxCell id="HSqZnOipHRx39nY64WQ3-120" value="" style="endArrow=classic;html=1;rounded=0;fontFamily=Helvetica;fontSize=20;strokeWidth=3;" parent="1" edge="1">
          <mxGeometry width="50" height="50" relative="1" as="geometry">
            <mxPoint x="800" y="880" as="sourcePoint" />
            <mxPoint x="600" y="880" as="targetPoint" />
          </mxGeometry>
        </mxCell>
        <mxCell id="HSqZnOipHRx39nY64WQ3-121" value="REQUEST CALENDAR" style="text;html=1;strokeColor=none;fillColor=none;align=center;verticalAlign=middle;whiteSpace=wrap;rounded=0;fontFamily=Tahoma;fontSize=12;fontStyle=1" parent="1" vertex="1">
          <mxGeometry x="620" y="810" width="160" height="20" as="geometry" />
        </mxCell>
        <mxCell id="HSqZnOipHRx39nY64WQ3-122" value="RETURN CALENDAR" style="text;html=1;strokeColor=none;fillColor=none;align=center;verticalAlign=middle;whiteSpace=wrap;rounded=0;fontFamily=Tahoma;fontSize=12;fontStyle=1;fontColor=#FF0000;" parent="1" vertex="1">
          <mxGeometry x="620" y="850" width="160" height="20" as="geometry" />
        </mxCell>
        <mxCell id="HSqZnOipHRx39nY64WQ3-123" value="" style="endArrow=classic;html=1;rounded=0;fontFamily=Helvetica;fontSize=20;strokeWidth=3;" parent="1" edge="1">
          <mxGeometry width="50" height="50" relative="1" as="geometry">
            <mxPoint x="600" y="920.0000000000002" as="sourcePoint" />
            <mxPoint x="800" y="920" as="targetPoint" />
          </mxGeometry>
        </mxCell>
        <mxCell id="HSqZnOipHRx39nY64WQ3-124" value="SEND EVIDENCE TO BACK-END" style="text;html=1;strokeColor=none;fillColor=none;align=center;verticalAlign=middle;whiteSpace=wrap;rounded=0;fontFamily=Tahoma;fontSize=12;fontStyle=1" parent="1" vertex="1">
          <mxGeometry x="620" y="890" width="160" height="20" as="geometry" />
        </mxCell>
        <mxCell id="HSqZnOipHRx39nY64WQ3-125" value="" style="endArrow=classic;html=1;rounded=0;fontFamily=Helvetica;fontSize=20;strokeWidth=3;" parent="1" edge="1">
          <mxGeometry width="50" height="50" relative="1" as="geometry">
            <mxPoint x="800" y="960" as="sourcePoint" />
            <mxPoint x="600" y="960" as="targetPoint" />
          </mxGeometry>
        </mxCell>
        <mxCell id="HSqZnOipHRx39nY64WQ3-126" value="SUCCESS / ERROR MESSAGE" style="text;html=1;strokeColor=none;fillColor=none;align=center;verticalAlign=middle;whiteSpace=wrap;rounded=0;fontFamily=Tahoma;fontSize=12;fontStyle=1;fontColor=#FF0000;" parent="1" vertex="1">
          <mxGeometry x="620" y="930" width="160" height="20" as="geometry" />
        </mxCell>
        <mxCell id="HSqZnOipHRx39nY64WQ3-127" value="" style="endArrow=classic;html=1;rounded=0;fontFamily=Helvetica;fontSize=20;strokeWidth=3;" parent="1" edge="1">
          <mxGeometry width="50" height="50" relative="1" as="geometry">
            <mxPoint x="600" y="1000.0000000000002" as="sourcePoint" />
            <mxPoint x="800" y="1000" as="targetPoint" />
          </mxGeometry>
        </mxCell>
        <mxCell id="HSqZnOipHRx39nY64WQ3-128" value="SEND EDITED DATA TO BACK-END" style="text;html=1;strokeColor=none;fillColor=none;align=center;verticalAlign=middle;whiteSpace=wrap;rounded=0;fontFamily=Tahoma;fontSize=12;fontStyle=1" parent="1" vertex="1">
          <mxGeometry x="620" y="960" width="160" height="40" as="geometry" />
        </mxCell>
        <mxCell id="HSqZnOipHRx39nY64WQ3-129" value="" style="endArrow=classic;html=1;rounded=0;fontFamily=Helvetica;fontSize=20;strokeWidth=3;" parent="1" edge="1">
          <mxGeometry width="50" height="50" relative="1" as="geometry">
            <mxPoint x="800" y="1040" as="sourcePoint" />
            <mxPoint x="600" y="1040" as="targetPoint" />
          </mxGeometry>
        </mxCell>
        <mxCell id="HSqZnOipHRx39nY64WQ3-130" value="SUCCESS / ERROR MESSAGE" style="text;html=1;strokeColor=none;fillColor=none;align=center;verticalAlign=middle;whiteSpace=wrap;rounded=0;fontFamily=Tahoma;fontSize=12;fontStyle=1;fontColor=#FF0000;" parent="1" vertex="1">
          <mxGeometry x="620" y="1010" width="160" height="20" as="geometry" />
        </mxCell>
        <mxCell id="HSqZnOipHRx39nY64WQ3-132" value="" style="endArrow=classic;html=1;rounded=0;fontFamily=Helvetica;fontSize=20;strokeWidth=3;" parent="1" edge="1">
          <mxGeometry width="50" height="50" relative="1" as="geometry">
            <mxPoint x="600" y="1080.0000000000002" as="sourcePoint" />
            <mxPoint x="800" y="1080" as="targetPoint" />
          </mxGeometry>
        </mxCell>
        <mxCell id="HSqZnOipHRx39nY64WQ3-133" value="REQUEST SUBMITTED OFFENCES" style="text;html=1;strokeColor=none;fillColor=none;align=center;verticalAlign=middle;whiteSpace=wrap;rounded=0;fontFamily=Tahoma;fontSize=12;fontStyle=1" parent="1" vertex="1">
          <mxGeometry x="620" y="1050" width="160" height="20" as="geometry" />
        </mxCell>
        <mxCell id="HSqZnOipHRx39nY64WQ3-134" value="" style="endArrow=classic;html=1;rounded=0;fontFamily=Helvetica;fontSize=20;strokeWidth=3;" parent="1" edge="1">
          <mxGeometry width="50" height="50" relative="1" as="geometry">
            <mxPoint x="800" y="1118" as="sourcePoint" />
            <mxPoint x="600" y="1118" as="targetPoint" />
          </mxGeometry>
        </mxCell>
        <mxCell id="HSqZnOipHRx39nY64WQ3-136" value="" style="endArrow=classic;html=1;rounded=0;fontFamily=Helvetica;fontSize=20;strokeWidth=3;" parent="1" edge="1">
          <mxGeometry width="50" height="50" relative="1" as="geometry">
            <mxPoint x="960" y="120.00000000000023" as="sourcePoint" />
            <mxPoint x="1160" y="120" as="targetPoint" />
          </mxGeometry>
        </mxCell>
        <mxCell id="HSqZnOipHRx39nY64WQ3-137" value="INSERT QUERY TO PLEDGE SUBMISSIONS" style="text;html=1;strokeColor=none;fillColor=none;align=center;verticalAlign=middle;whiteSpace=wrap;rounded=0;fontFamily=Tahoma;fontSize=12;fontStyle=1" parent="1" vertex="1">
          <mxGeometry x="980" y="80" width="160" height="20" as="geometry" />
        </mxCell>
        <mxCell id="HSqZnOipHRx39nY64WQ3-139" value="" style="endArrow=classic;html=1;rounded=0;fontFamily=Helvetica;fontSize=20;strokeWidth=3;" parent="1" edge="1">
          <mxGeometry width="50" height="50" relative="1" as="geometry">
            <mxPoint x="1160" y="159" as="sourcePoint" />
            <mxPoint x="960" y="159" as="targetPoint" />
          </mxGeometry>
        </mxCell>
        <mxCell id="HSqZnOipHRx39nY64WQ3-140" value="SUCCESS / ERROR MESSAGE" style="text;html=1;strokeColor=none;fillColor=none;align=center;verticalAlign=middle;whiteSpace=wrap;rounded=0;fontFamily=Tahoma;fontSize=12;fontStyle=1;fontColor=#FF0000;" parent="1" vertex="1">
          <mxGeometry x="980" y="130" width="160" height="20" as="geometry" />
        </mxCell>
        <mxCell id="HSqZnOipHRx39nY64WQ3-142" value="" style="endArrow=classic;html=1;rounded=0;fontFamily=Helvetica;fontSize=20;strokeWidth=3;" parent="1" edge="1">
          <mxGeometry width="50" height="50" relative="1" as="geometry">
            <mxPoint x="960" y="240.00000000000023" as="sourcePoint" />
            <mxPoint x="1160" y="240" as="targetPoint" />
          </mxGeometry>
        </mxCell>
        <mxCell id="HSqZnOipHRx39nY64WQ3-143" value="" style="endArrow=classic;html=1;rounded=0;fontFamily=Helvetica;fontSize=20;strokeWidth=3;" parent="1" edge="1">
          <mxGeometry width="50" height="50" relative="1" as="geometry">
            <mxPoint x="1160" y="300" as="sourcePoint" />
            <mxPoint x="960" y="300" as="targetPoint" />
          </mxGeometry>
        </mxCell>
        <mxCell id="HSqZnOipHRx39nY64WQ3-144" value="" style="endArrow=classic;html=1;rounded=0;fontFamily=Helvetica;fontSize=20;strokeWidth=3;" parent="1" edge="1">
          <mxGeometry width="50" height="50" relative="1" as="geometry">
            <mxPoint x="1160" y="420" as="sourcePoint" />
            <mxPoint x="960" y="420" as="targetPoint" />
          </mxGeometry>
        </mxCell>
        <mxCell id="HSqZnOipHRx39nY64WQ3-145" value="" style="endArrow=classic;html=1;rounded=0;fontFamily=Helvetica;fontSize=20;strokeWidth=3;" parent="1" edge="1">
          <mxGeometry width="50" height="50" relative="1" as="geometry">
            <mxPoint x="960" y="359.0000000000002" as="sourcePoint" />
            <mxPoint x="1160" y="359" as="targetPoint" />
          </mxGeometry>
        </mxCell>
        <mxCell id="HSqZnOipHRx39nY64WQ3-146" value="SELECT QUERY FROM OFFENCE LIST" style="text;html=1;strokeColor=none;fillColor=none;align=center;verticalAlign=middle;whiteSpace=wrap;rounded=0;fontFamily=Tahoma;fontSize=12;fontStyle=1" parent="1" vertex="1">
          <mxGeometry x="980" y="210" width="160" height="20" as="geometry" />
        </mxCell>
        <mxCell id="HSqZnOipHRx39nY64WQ3-147" value="RETURN OFFENCE LIST" style="text;html=1;strokeColor=none;fillColor=none;align=center;verticalAlign=middle;whiteSpace=wrap;rounded=0;fontFamily=Tahoma;fontSize=12;fontStyle=1;fontColor=#FF0000;" parent="1" vertex="1">
          <mxGeometry x="980" y="270" width="160" height="20" as="geometry" />
        </mxCell>
        <mxCell id="HSqZnOipHRx39nY64WQ3-148" value="INSERT QUERY TO LOG OFFENCES" style="text;html=1;strokeColor=none;fillColor=none;align=center;verticalAlign=middle;whiteSpace=wrap;rounded=0;fontFamily=Tahoma;fontSize=12;fontStyle=1" parent="1" vertex="1">
          <mxGeometry x="980" y="330" width="160" height="20" as="geometry" />
        </mxCell>
        <mxCell id="HSqZnOipHRx39nY64WQ3-149" value="SUCCESS / ERROR MESSAGE" style="text;html=1;strokeColor=none;fillColor=none;align=center;verticalAlign=middle;whiteSpace=wrap;rounded=0;fontFamily=Tahoma;fontSize=12;fontStyle=1;fontColor=#FF0000;" parent="1" vertex="1">
          <mxGeometry x="980" y="390" width="160" height="20" as="geometry" />
        </mxCell>
        <mxCell id="HSqZnOipHRx39nY64WQ3-150" value="" style="endArrow=classic;html=1;rounded=0;fontFamily=Helvetica;fontSize=20;strokeWidth=3;" parent="1" edge="1">
          <mxGeometry width="50" height="50" relative="1" as="geometry">
            <mxPoint x="960" y="520.0000000000002" as="sourcePoint" />
            <mxPoint x="1160" y="520" as="targetPoint" />
          </mxGeometry>
        </mxCell>
        <mxCell id="HSqZnOipHRx39nY64WQ3-151" value="INSERT QUERY TO PLEDGE SUBMISSION" style="text;html=1;strokeColor=none;fillColor=none;align=center;verticalAlign=middle;whiteSpace=wrap;rounded=0;fontFamily=Tahoma;fontSize=12;fontStyle=1" parent="1" vertex="1">
          <mxGeometry x="980" y="490" width="160" height="20" as="geometry" />
        </mxCell>
        <mxCell id="HSqZnOipHRx39nY64WQ3-152" value="" style="endArrow=classic;html=1;rounded=0;fontFamily=Helvetica;fontSize=20;strokeWidth=3;" parent="1" edge="1">
          <mxGeometry width="50" height="50" relative="1" as="geometry">
            <mxPoint x="1160" y="560" as="sourcePoint" />
            <mxPoint x="960" y="560" as="targetPoint" />
          </mxGeometry>
        </mxCell>
        <mxCell id="HSqZnOipHRx39nY64WQ3-153" value="SUCCESS / ERROR MESSAGE" style="text;html=1;strokeColor=none;fillColor=none;align=center;verticalAlign=middle;whiteSpace=wrap;rounded=0;fontFamily=Tahoma;fontSize=12;fontStyle=1;fontColor=#FF0000;" parent="1" vertex="1">
          <mxGeometry x="980" y="530" width="160" height="20" as="geometry" />
        </mxCell>
        <mxCell id="HSqZnOipHRx39nY64WQ3-154" value="" style="endArrow=classic;html=1;rounded=0;fontFamily=Helvetica;fontSize=20;strokeWidth=3;" parent="1" edge="1">
          <mxGeometry width="50" height="50" relative="1" as="geometry">
            <mxPoint x="960" y="600.0000000000002" as="sourcePoint" />
            <mxPoint x="1160" y="600" as="targetPoint" />
          </mxGeometry>
        </mxCell>
        <mxCell id="HSqZnOipHRx39nY64WQ3-155" value="SELECT QUERY FROM PLEDGE SUBMISSION" style="text;html=1;strokeColor=none;fillColor=none;align=center;verticalAlign=middle;whiteSpace=wrap;rounded=0;fontFamily=Tahoma;fontSize=12;fontStyle=1" parent="1" vertex="1">
          <mxGeometry x="980" y="574.5" width="160" height="20" as="geometry" />
        </mxCell>
        <mxCell id="HSqZnOipHRx39nY64WQ3-157" value="" style="endArrow=classic;html=1;rounded=0;fontFamily=Helvetica;fontSize=20;strokeWidth=3;" parent="1" edge="1">
          <mxGeometry width="50" height="50" relative="1" as="geometry">
            <mxPoint x="960" y="688.0000000000002" as="sourcePoint" />
            <mxPoint x="1160" y="688" as="targetPoint" />
          </mxGeometry>
        </mxCell>
        <mxCell id="HSqZnOipHRx39nY64WQ3-158" value="" style="endArrow=classic;html=1;rounded=0;fontFamily=Helvetica;fontSize=20;strokeWidth=3;" parent="1" edge="1">
          <mxGeometry width="50" height="50" relative="1" as="geometry">
            <mxPoint x="1160" y="648" as="sourcePoint" />
            <mxPoint x="960" y="648" as="targetPoint" />
          </mxGeometry>
        </mxCell>
        <mxCell id="HSqZnOipHRx39nY64WQ3-159" value="REETURN PLEDGE SUBMISSION" style="text;html=1;strokeColor=none;fillColor=none;align=center;verticalAlign=middle;whiteSpace=wrap;rounded=0;fontFamily=Tahoma;fontSize=12;fontStyle=1;fontColor=#FF0000;" parent="1" vertex="1">
          <mxGeometry x="980" y="615" width="160" height="20" as="geometry" />
        </mxCell>
        <mxCell id="HSqZnOipHRx39nY64WQ3-160" value="INSERT INTO DATABASE" style="text;html=1;strokeColor=none;fillColor=none;align=center;verticalAlign=middle;whiteSpace=wrap;rounded=0;fontFamily=Tahoma;fontSize=12;fontStyle=1" parent="1" vertex="1">
          <mxGeometry x="980" y="660" width="160" height="20" as="geometry" />
        </mxCell>
        <mxCell id="HSqZnOipHRx39nY64WQ3-161" value="" style="endArrow=classic;html=1;rounded=0;fontFamily=Helvetica;fontSize=20;strokeWidth=3;" parent="1" edge="1">
          <mxGeometry width="50" height="50" relative="1" as="geometry">
            <mxPoint x="1160" y="720" as="sourcePoint" />
            <mxPoint x="960" y="720" as="targetPoint" />
          </mxGeometry>
        </mxCell>
        <mxCell id="HSqZnOipHRx39nY64WQ3-162" value="SUCCESS / ERROR MESSAGE" style="text;html=1;strokeColor=none;fillColor=none;align=center;verticalAlign=middle;whiteSpace=wrap;rounded=0;fontFamily=Tahoma;fontSize=12;fontStyle=1;fontColor=#FF0000;" parent="1" vertex="1">
          <mxGeometry x="980" y="690" width="160" height="20" as="geometry" />
        </mxCell>
        <mxCell id="HSqZnOipHRx39nY64WQ3-164" value="" style="endArrow=classic;html=1;rounded=0;fontFamily=Helvetica;fontSize=20;strokeWidth=3;" parent="1" edge="1">
          <mxGeometry width="50" height="50" relative="1" as="geometry">
            <mxPoint x="960" y="760.0000000000003" as="sourcePoint" />
            <mxPoint x="1160" y="759.9999999999999" as="targetPoint" />
          </mxGeometry>
        </mxCell>
        <mxCell id="HSqZnOipHRx39nY64WQ3-165" value="SELECT QUERY FROM PLEEDGE SUBMISSION" style="text;html=1;strokeColor=none;fillColor=none;align=center;verticalAlign=middle;whiteSpace=wrap;rounded=0;fontFamily=Tahoma;fontSize=12;fontStyle=1" parent="1" vertex="1">
          <mxGeometry x="980" y="730" width="160" height="20" as="geometry" />
        </mxCell>
        <mxCell id="HSqZnOipHRx39nY64WQ3-166" value="" style="endArrow=classic;html=1;rounded=0;fontFamily=Helvetica;fontSize=20;strokeWidth=3;" parent="1" edge="1">
          <mxGeometry width="50" height="50" relative="1" as="geometry">
            <mxPoint x="1160" y="799.9999999999999" as="sourcePoint" />
            <mxPoint x="960" y="799.9999999999999" as="targetPoint" />
          </mxGeometry>
        </mxCell>
        <mxCell id="HSqZnOipHRx39nY64WQ3-167" value="RETURN TEST REPORT" style="text;html=1;strokeColor=none;fillColor=none;align=center;verticalAlign=middle;whiteSpace=wrap;rounded=0;fontFamily=Tahoma;fontSize=12;fontStyle=1;fontColor=#FF0000;" parent="1" vertex="1">
          <mxGeometry x="980" y="770" width="160" height="20" as="geometry" />
        </mxCell>
        <mxCell id="HSqZnOipHRx39nY64WQ3-168" value="" style="endArrow=classic;html=1;rounded=0;fontFamily=Helvetica;fontSize=20;strokeWidth=3;" parent="1" edge="1">
          <mxGeometry width="50" height="50" relative="1" as="geometry">
            <mxPoint x="960" y="840.0000000000002" as="sourcePoint" />
            <mxPoint x="1160" y="840" as="targetPoint" />
          </mxGeometry>
        </mxCell>
        <mxCell id="HSqZnOipHRx39nY64WQ3-169" value="INSERT QUERY INTO OFFENCE DETAILS" style="text;html=1;strokeColor=none;fillColor=none;align=center;verticalAlign=middle;whiteSpace=wrap;rounded=0;fontFamily=Tahoma;fontSize=12;fontStyle=1" parent="1" vertex="1">
          <mxGeometry x="980" y="810" width="160" height="20" as="geometry" />
        </mxCell>
        <mxCell id="HSqZnOipHRx39nY64WQ3-170" value="" style="endArrow=classic;html=1;rounded=0;fontFamily=Helvetica;fontSize=20;strokeWidth=3;" parent="1" edge="1">
          <mxGeometry width="50" height="50" relative="1" as="geometry">
            <mxPoint x="1160" y="880" as="sourcePoint" />
            <mxPoint x="960" y="880" as="targetPoint" />
          </mxGeometry>
        </mxCell>
        <mxCell id="HSqZnOipHRx39nY64WQ3-172" value="SUCCESS / ERROR MESSAGE" style="text;html=1;strokeColor=none;fillColor=none;align=center;verticalAlign=middle;whiteSpace=wrap;rounded=0;fontFamily=Tahoma;fontSize=12;fontStyle=1;fontColor=#FF0000;" parent="1" vertex="1">
          <mxGeometry x="980" y="850" width="160" height="20" as="geometry" />
        </mxCell>
        <mxCell id="HSqZnOipHRx39nY64WQ3-173" value="" style="endArrow=classic;html=1;rounded=0;fontFamily=Helvetica;fontSize=20;strokeWidth=3;" parent="1" edge="1">
          <mxGeometry width="50" height="50" relative="1" as="geometry">
            <mxPoint x="960" y="920.0000000000002" as="sourcePoint" />
            <mxPoint x="1160" y="920" as="targetPoint" />
          </mxGeometry>
        </mxCell>
        <mxCell id="HSqZnOipHRx39nY64WQ3-174" value="INSERT QUERY TO LOG OFFENCES" style="text;html=1;strokeColor=none;fillColor=none;align=center;verticalAlign=middle;whiteSpace=wrap;rounded=0;fontFamily=Tahoma;fontSize=12;fontStyle=1" parent="1" vertex="1">
          <mxGeometry x="980" y="890" width="160" height="20" as="geometry" />
        </mxCell>
        <mxCell id="HSqZnOipHRx39nY64WQ3-175" value="" style="endArrow=classic;html=1;rounded=0;fontFamily=Helvetica;fontSize=20;strokeWidth=3;" parent="1" edge="1">
          <mxGeometry width="50" height="50" relative="1" as="geometry">
            <mxPoint x="1160" y="960" as="sourcePoint" />
            <mxPoint x="960" y="960" as="targetPoint" />
          </mxGeometry>
        </mxCell>
        <mxCell id="HSqZnOipHRx39nY64WQ3-176" value="SUCCESS / ERROR MESSAGE" style="text;html=1;strokeColor=none;fillColor=none;align=center;verticalAlign=middle;whiteSpace=wrap;rounded=0;fontFamily=Tahoma;fontSize=12;fontStyle=1;fontColor=#FF0000;" parent="1" vertex="1">
          <mxGeometry x="980" y="930" width="160" height="20" as="geometry" />
        </mxCell>
        <mxCell id="HSqZnOipHRx39nY64WQ3-177" value="" style="endArrow=classic;html=1;rounded=0;fontFamily=Helvetica;fontSize=20;strokeWidth=3;" parent="1" edge="1">
          <mxGeometry width="50" height="50" relative="1" as="geometry">
            <mxPoint x="960" y="1000.0000000000002" as="sourcePoint" />
            <mxPoint x="1160" y="1000" as="targetPoint" />
          </mxGeometry>
        </mxCell>
        <mxCell id="HSqZnOipHRx39nY64WQ3-178" value="" style="endArrow=classic;html=1;rounded=0;fontFamily=Helvetica;fontSize=20;strokeWidth=3;" parent="1" edge="1">
          <mxGeometry width="50" height="50" relative="1" as="geometry">
            <mxPoint x="960" y="1080" as="sourcePoint" />
            <mxPoint x="1160" y="1080" as="targetPoint" />
          </mxGeometry>
        </mxCell>
        <mxCell id="HSqZnOipHRx39nY64WQ3-179" value="" style="endArrow=classic;html=1;rounded=0;fontFamily=Helvetica;fontSize=20;strokeWidth=3;" parent="1" edge="1">
          <mxGeometry width="50" height="50" relative="1" as="geometry">
            <mxPoint x="1160" y="1040" as="sourcePoint" />
            <mxPoint x="960" y="1040" as="targetPoint" />
          </mxGeometry>
        </mxCell>
        <mxCell id="HSqZnOipHRx39nY64WQ3-180" value="" style="endArrow=classic;html=1;rounded=0;fontFamily=Helvetica;fontSize=20;strokeWidth=3;" parent="1" edge="1">
          <mxGeometry width="50" height="50" relative="1" as="geometry">
            <mxPoint x="1160" y="1118" as="sourcePoint" />
            <mxPoint x="960" y="1118" as="targetPoint" />
          </mxGeometry>
        </mxCell>
        <mxCell id="HSqZnOipHRx39nY64WQ3-181" value="UPDATE QUERY TO OFFENCE LIST" style="text;html=1;strokeColor=none;fillColor=none;align=center;verticalAlign=middle;whiteSpace=wrap;rounded=0;fontFamily=Tahoma;fontSize=12;fontStyle=1" parent="1" vertex="1">
          <mxGeometry x="980" y="970" width="160" height="20" as="geometry" />
        </mxCell>
        <mxCell id="HSqZnOipHRx39nY64WQ3-182" value="SELECT QUEREY FROM SUBMITTED OFFENCES" style="text;html=1;strokeColor=none;fillColor=none;align=center;verticalAlign=middle;whiteSpace=wrap;rounded=0;fontFamily=Tahoma;fontSize=12;fontStyle=1" parent="1" vertex="1">
          <mxGeometry x="980" y="1050" width="160" height="20" as="geometry" />
        </mxCell>
        <mxCell id="HSqZnOipHRx39nY64WQ3-183" value="SUCCESS / ERROR MESSAGE" style="text;html=1;strokeColor=none;fillColor=none;align=center;verticalAlign=middle;whiteSpace=wrap;rounded=0;fontFamily=Tahoma;fontSize=12;fontStyle=1;fontColor=#FF0000;" parent="1" vertex="1">
          <mxGeometry x="980" y="1010" width="160" height="20" as="geometry" />
        </mxCell>
        <mxCell id="HSqZnOipHRx39nY64WQ3-184" value="RETURN SUBMITTED OFFENCES" style="text;html=1;strokeColor=none;fillColor=none;align=center;verticalAlign=middle;whiteSpace=wrap;rounded=0;fontFamily=Tahoma;fontSize=12;fontStyle=1;fontColor=#FF0000;" parent="1" vertex="1">
          <mxGeometry x="980" y="1090" width="160" height="20" as="geometry" />
        </mxCell>
      </root>
    </mxGraphModel>
  </diagram>
  <diagram id="apOEIpJLy9hq9hlb3axt" name="StateDiagram">
    <mxGraphModel dx="1351" dy="799" grid="1" gridSize="10" guides="1" tooltips="1" connect="1" arrows="1" fold="1" page="1" pageScale="1" pageWidth="827" pageHeight="1169" math="0" shadow="0">
      <root>
        <mxCell id="0" />
        <mxCell id="1" parent="0" />
        <mxCell id="-ptn2rf07PZdwjouz5XI-45" value="" style="rounded=1;whiteSpace=wrap;html=1;labelBackgroundColor=#FFFFFF;fontFamily=Tahoma;fontSize=12;strokeWidth=2;" parent="1" vertex="1">
          <mxGeometry x="820" y="280" width="90" height="30" as="geometry" />
        </mxCell>
        <mxCell id="-ptn2rf07PZdwjouz5XI-44" value="" style="rounded=1;whiteSpace=wrap;html=1;labelBackgroundColor=#FFFFFF;fontFamily=Tahoma;fontSize=12;strokeWidth=2;" parent="1" vertex="1">
          <mxGeometry x="700" y="321.25" width="80" height="42.5" as="geometry" />
        </mxCell>
        <mxCell id="-ptn2rf07PZdwjouz5XI-43" value="" style="rounded=1;whiteSpace=wrap;html=1;labelBackgroundColor=#FFFFFF;fontFamily=Tahoma;fontSize=12;strokeWidth=2;" parent="1" vertex="1">
          <mxGeometry x="610" y="327.5" width="80" height="42.5" as="geometry" />
        </mxCell>
        <mxCell id="-ptn2rf07PZdwjouz5XI-41" value="" style="rounded=1;whiteSpace=wrap;html=1;labelBackgroundColor=#FFFFFF;fontFamily=Tahoma;fontSize=12;strokeWidth=2;" parent="1" vertex="1">
          <mxGeometry x="520" y="327.5" width="80" height="62.5" as="geometry" />
        </mxCell>
        <mxCell id="-ptn2rf07PZdwjouz5XI-32" value="SHOW POSSIBLE OFFENCES PAGE" style="text;html=1;strokeColor=none;fillColor=none;align=center;verticalAlign=middle;whiteSpace=wrap;rounded=0;fontStyle=1;fontFamily=Helvetica;fontSize=12;" parent="1" vertex="1">
          <mxGeometry x="520" y="338.75" width="80" height="40" as="geometry" />
        </mxCell>
        <mxCell id="-ptn2rf07PZdwjouz5XI-40" value="" style="rounded=1;whiteSpace=wrap;html=1;labelBackgroundColor=#FFFFFF;fontFamily=Tahoma;fontSize=12;strokeWidth=2;" parent="1" vertex="1">
          <mxGeometry x="430" y="321.25" width="80" height="42.5" as="geometry" />
        </mxCell>
        <mxCell id="-ptn2rf07PZdwjouz5XI-39" value="" style="rounded=1;whiteSpace=wrap;html=1;labelBackgroundColor=#FFFFFF;fontFamily=Tahoma;fontSize=12;strokeWidth=2;" parent="1" vertex="1">
          <mxGeometry x="315" y="280" width="90" height="30" as="geometry" />
        </mxCell>
        <mxCell id="-ptn2rf07PZdwjouz5XI-38" value="" style="rounded=1;whiteSpace=wrap;html=1;labelBackgroundColor=#FFFFFF;fontFamily=Tahoma;fontSize=12;strokeWidth=2;" parent="1" vertex="1">
          <mxGeometry x="540" y="73.75" width="140" height="42.5" as="geometry" />
        </mxCell>
        <mxCell id="-ptn2rf07PZdwjouz5XI-36" value="" style="rounded=1;whiteSpace=wrap;html=1;labelBackgroundColor=#FFFFFF;fontFamily=Tahoma;fontSize=12;strokeWidth=2;" parent="1" vertex="1">
          <mxGeometry x="260" y="71.25" width="140" height="42.5" as="geometry" />
        </mxCell>
        <mxCell id="_8t7lkBsy2xXNFA5nUa1-1" value="" style="ellipse;whiteSpace=wrap;html=1;aspect=fixed;fontFamily=Tahoma;fontSize=12;strokeWidth=3;labelBackgroundColor=#000000;fillColor=#000000;strokeColor=#000000;" parent="1" vertex="1">
          <mxGeometry x="90" y="80" width="30" height="30" as="geometry" />
        </mxCell>
        <mxCell id="_8t7lkBsy2xXNFA5nUa1-6" value="" style="endArrow=classic;html=1;rounded=0;fontFamily=Tahoma;fontSize=12;fontColor=#FF0000;strokeWidth=1;" parent="1" edge="1">
          <mxGeometry width="50" height="50" relative="1" as="geometry">
            <mxPoint x="120" y="94.41" as="sourcePoint" />
            <mxPoint x="260" y="94.41" as="targetPoint" />
          </mxGeometry>
        </mxCell>
        <mxCell id="-ptn2rf07PZdwjouz5XI-1" value="START" style="text;html=1;strokeColor=none;fillColor=none;align=center;verticalAlign=middle;whiteSpace=wrap;rounded=0;fontStyle=1;fontFamily=Helvetica;fontSize=12;" parent="1" vertex="1">
          <mxGeometry x="80" y="50" width="50" height="25" as="geometry" />
        </mxCell>
        <mxCell id="-ptn2rf07PZdwjouz5XI-2" value="OPEN WEBSITE" style="text;html=1;strokeColor=none;fillColor=none;align=center;verticalAlign=middle;whiteSpace=wrap;rounded=0;fontStyle=1;fontFamily=Helvetica;fontSize=12;" parent="1" vertex="1">
          <mxGeometry x="130" y="70" width="100" height="30" as="geometry" />
        </mxCell>
        <mxCell id="-ptn2rf07PZdwjouz5XI-5" value="WAIT FOR LOG IN" style="text;html=1;strokeColor=none;fillColor=none;align=center;verticalAlign=middle;whiteSpace=wrap;rounded=0;fontStyle=1;fontFamily=Helvetica;fontSize=12;" parent="1" vertex="1">
          <mxGeometry x="270" y="82.5" width="120" height="20" as="geometry" />
        </mxCell>
        <mxCell id="-ptn2rf07PZdwjouz5XI-11" value="MENU PAGE" style="text;html=1;strokeColor=none;fillColor=none;align=center;verticalAlign=middle;whiteSpace=wrap;rounded=0;fontStyle=1;fontFamily=Helvetica;fontSize=12;" parent="1" vertex="1">
          <mxGeometry x="550" y="85" width="120" height="20" as="geometry" />
        </mxCell>
        <mxCell id="-ptn2rf07PZdwjouz5XI-12" value="" style="endArrow=none;html=1;rounded=0;fontFamily=Tahoma;fontSize=12;fontColor=#000000;strokeWidth=1;" parent="1" edge="1">
          <mxGeometry width="50" height="50" relative="1" as="geometry">
            <mxPoint x="400" y="200" as="sourcePoint" />
            <mxPoint x="800" y="200" as="targetPoint" />
          </mxGeometry>
        </mxCell>
        <mxCell id="-ptn2rf07PZdwjouz5XI-13" value="" style="endArrow=classic;html=1;rounded=0;fontFamily=Tahoma;fontSize=12;fontColor=#000000;strokeWidth=1;" parent="1" edge="1">
          <mxGeometry width="50" height="50" relative="1" as="geometry">
            <mxPoint x="610.59" y="120" as="sourcePoint" />
            <mxPoint x="609" y="200" as="targetPoint" />
          </mxGeometry>
        </mxCell>
        <mxCell id="-ptn2rf07PZdwjouz5XI-14" value="" style="endArrow=classic;html=1;rounded=0;fontFamily=Tahoma;fontSize=12;fontColor=#000000;strokeWidth=1;" parent="1" edge="1">
          <mxGeometry width="50" height="50" relative="1" as="geometry">
            <mxPoint x="440" y="200" as="sourcePoint" />
            <mxPoint x="360" y="280" as="targetPoint" />
          </mxGeometry>
        </mxCell>
        <mxCell id="-ptn2rf07PZdwjouz5XI-15" value="" style="endArrow=classic;html=1;rounded=0;fontFamily=Tahoma;fontSize=12;fontColor=#000000;strokeWidth=1;" parent="1" edge="1">
          <mxGeometry width="50" height="50" relative="1" as="geometry">
            <mxPoint x="747" y="200" as="sourcePoint" />
            <mxPoint x="827" y="280" as="targetPoint" />
          </mxGeometry>
        </mxCell>
        <mxCell id="-ptn2rf07PZdwjouz5XI-16" value="" style="endArrow=classic;html=1;rounded=0;fontFamily=Tahoma;fontSize=12;fontColor=#000000;strokeWidth=1;" parent="1" edge="1">
          <mxGeometry width="50" height="50" relative="1" as="geometry">
            <mxPoint x="469.41" y="200" as="sourcePoint" />
            <mxPoint x="469.41" y="320" as="targetPoint" />
          </mxGeometry>
        </mxCell>
        <mxCell id="-ptn2rf07PZdwjouz5XI-17" value="" style="endArrow=classic;html=1;rounded=0;fontFamily=Tahoma;fontSize=12;fontColor=#FF0000;strokeWidth=1;fillColor=#fad9d5;strokeColor=#ae4132;" parent="1" edge="1">
          <mxGeometry width="50" height="50" relative="1" as="geometry">
            <mxPoint x="559.41" y="205" as="sourcePoint" />
            <mxPoint x="559.41" y="325" as="targetPoint" />
          </mxGeometry>
        </mxCell>
        <mxCell id="-ptn2rf07PZdwjouz5XI-18" value="" style="endArrow=classic;html=1;rounded=0;fontFamily=Tahoma;fontSize=12;fontColor=#FF0000;strokeWidth=1;fillColor=#fad9d5;strokeColor=#ae4132;" parent="1" edge="1">
          <mxGeometry width="50" height="50" relative="1" as="geometry">
            <mxPoint x="649.41" y="205" as="sourcePoint" />
            <mxPoint x="649.41" y="325" as="targetPoint" />
          </mxGeometry>
        </mxCell>
        <mxCell id="-ptn2rf07PZdwjouz5XI-19" value="" style="endArrow=classic;html=1;rounded=0;fontFamily=Tahoma;fontSize=12;fontColor=#000000;strokeWidth=1;fillColor=#fad9d5;strokeColor=#ae4132;" parent="1" edge="1">
          <mxGeometry width="50" height="50" relative="1" as="geometry">
            <mxPoint x="720" y="200" as="sourcePoint" />
            <mxPoint x="720" y="320" as="targetPoint" />
          </mxGeometry>
        </mxCell>
        <mxCell id="-ptn2rf07PZdwjouz5XI-30" value="ABOUT" style="text;html=1;strokeColor=none;fillColor=none;align=center;verticalAlign=middle;whiteSpace=wrap;rounded=0;fontStyle=1;fontFamily=Helvetica;fontSize=12;" parent="1" vertex="1">
          <mxGeometry x="335" y="280" width="50" height="30" as="geometry" />
        </mxCell>
        <mxCell id="-ptn2rf07PZdwjouz5XI-31" value="LOG OFFENCE" style="text;html=1;strokeColor=none;fillColor=none;align=center;verticalAlign=middle;whiteSpace=wrap;rounded=0;fontStyle=1;fontFamily=Helvetica;fontSize=12;" parent="1" vertex="1">
          <mxGeometry x="445" y="327.5" width="50" height="30" as="geometry" />
        </mxCell>
        <mxCell id="-ptn2rf07PZdwjouz5XI-33" value="VIEW SUBMITTED&lt;br&gt;OFFENCES" style="text;html=1;align=center;verticalAlign=middle;whiteSpace=wrap;rounded=0;fontStyle=1;fontFamily=Helvetica;fontSize=12;" parent="1" vertex="1">
          <mxGeometry x="625" y="333.75" width="50" height="30" as="geometry" />
        </mxCell>
        <mxCell id="-ptn2rf07PZdwjouz5XI-34" value="EDIT OFFENCES" style="text;html=1;strokeColor=none;fillColor=none;align=center;verticalAlign=middle;whiteSpace=wrap;rounded=0;fontStyle=1;fontFamily=Helvetica;fontSize=12;" parent="1" vertex="1">
          <mxGeometry x="715" y="327.5" width="50" height="30" as="geometry" />
        </mxCell>
        <mxCell id="-ptn2rf07PZdwjouz5XI-35" value="MANAGE&lt;br&gt;PLEDGES" style="text;html=1;strokeColor=none;fillColor=none;align=center;verticalAlign=middle;whiteSpace=wrap;rounded=0;fontStyle=1;fontFamily=Helvetica;fontSize=12;" parent="1" vertex="1">
          <mxGeometry x="840" y="280" width="50" height="30" as="geometry" />
        </mxCell>
        <mxCell id="-ptn2rf07PZdwjouz5XI-51" value="" style="endArrow=classic;html=1;rounded=0;fontFamily=Tahoma;fontSize=12;fontColor=#000000;strokeWidth=1;fillColor=#fad9d5;strokeColor=#ae4132;" parent="1" edge="1">
          <mxGeometry width="50" height="50" relative="1" as="geometry">
            <mxPoint x="649.4099999999999" y="370" as="sourcePoint" />
            <mxPoint x="649.4099999999999" y="490" as="targetPoint" />
          </mxGeometry>
        </mxCell>
        <mxCell id="-ptn2rf07PZdwjouz5XI-54" value="" style="endArrow=classic;html=1;rounded=0;fontFamily=Tahoma;fontSize=12;fontColor=#000000;strokeWidth=1;" parent="1" edge="1">
          <mxGeometry width="50" height="50" relative="1" as="geometry">
            <mxPoint x="864.4099999999999" y="310" as="sourcePoint" />
            <mxPoint x="864.4099999999999" y="430" as="targetPoint" />
          </mxGeometry>
        </mxCell>
        <mxCell id="-ptn2rf07PZdwjouz5XI-56" value="click on&lt;br&gt;ABOUT btn" style="text;html=1;strokeColor=none;fillColor=none;align=center;verticalAlign=middle;whiteSpace=wrap;rounded=0;fontStyle=1;fontFamily=Helvetica;fontSize=10;rotation=-45;" parent="1" vertex="1">
          <mxGeometry x="360" y="220" width="60" height="20" as="geometry" />
        </mxCell>
        <mxCell id="-ptn2rf07PZdwjouz5XI-57" value="click on&lt;br&gt;LOG OFFENCE btn" style="text;html=1;strokeColor=none;fillColor=none;align=center;verticalAlign=middle;whiteSpace=wrap;rounded=0;fontStyle=1;fontFamily=Helvetica;fontSize=10;rotation=-90;" parent="1" vertex="1">
          <mxGeometry x="408" y="250" width="87" height="20" as="geometry" />
        </mxCell>
        <mxCell id="-ptn2rf07PZdwjouz5XI-58" value="click on&lt;br&gt;VIEW POSSIBLE OFFENCES btn" style="text;html=1;strokeColor=none;fillColor=none;align=center;verticalAlign=middle;whiteSpace=wrap;rounded=0;fontStyle=1;fontFamily=Helvetica;fontSize=10;rotation=-90;" parent="1" vertex="1">
          <mxGeometry x="475" y="260" width="125" height="20" as="geometry" />
        </mxCell>
        <mxCell id="-ptn2rf07PZdwjouz5XI-59" value="click on&lt;br&gt;VIEW SUBMITTED&amp;nbsp;OFFENCES btn" style="text;html=1;strokeColor=none;fillColor=none;align=center;verticalAlign=middle;whiteSpace=wrap;rounded=0;fontStyle=1;fontFamily=Helvetica;fontSize=10;rotation=-90;" parent="1" vertex="1">
          <mxGeometry x="570" y="255" width="105" height="20" as="geometry" />
        </mxCell>
        <mxCell id="-ptn2rf07PZdwjouz5XI-60" value="click on&lt;br&gt;EDIT OFFENCES btn" style="text;html=1;strokeColor=none;fillColor=none;align=center;verticalAlign=middle;whiteSpace=wrap;rounded=0;fontStyle=1;fontFamily=Helvetica;fontSize=10;rotation=-90;" parent="1" vertex="1">
          <mxGeometry x="660" y="250" width="90" height="20" as="geometry" />
        </mxCell>
        <mxCell id="-ptn2rf07PZdwjouz5XI-61" value="click on&lt;br&gt;MANAGE PLEDGES btn" style="text;html=1;strokeColor=none;fillColor=none;align=center;verticalAlign=middle;whiteSpace=wrap;rounded=0;fontStyle=1;fontFamily=Helvetica;fontSize=10;rotation=45;" parent="1" vertex="1">
          <mxGeometry x="754.39" y="219.39" width="90" height="20" as="geometry" />
        </mxCell>
        <mxCell id="-ptn2rf07PZdwjouz5XI-62" value="" style="rounded=1;whiteSpace=wrap;html=1;labelBackgroundColor=#FFFFFF;fontFamily=Tahoma;fontSize=12;strokeWidth=2;" parent="1" vertex="1">
          <mxGeometry x="430" y="490" width="80" height="42.5" as="geometry" />
        </mxCell>
        <mxCell id="-ptn2rf07PZdwjouz5XI-63" value="SUBMIT ACADEMIC&lt;br&gt;OFFENCE" style="text;html=1;strokeColor=none;fillColor=none;align=center;verticalAlign=middle;whiteSpace=wrap;rounded=0;fontStyle=1;fontFamily=Helvetica;fontSize=12;" parent="1" vertex="1">
          <mxGeometry x="445" y="496.25" width="50" height="30" as="geometry" />
        </mxCell>
        <mxCell id="2qmD4o-6_xnF4s2-aBHv-2" value="" style="endArrow=classic;html=1;rounded=0;fontFamily=Tahoma;fontSize=10;fontColor=#000000;strokeWidth=1;" parent="1" edge="1">
          <mxGeometry width="50" height="50" relative="1" as="geometry">
            <mxPoint x="460" y="490" as="sourcePoint" />
            <mxPoint x="460" y="370" as="targetPoint" />
          </mxGeometry>
        </mxCell>
        <mxCell id="2qmD4o-6_xnF4s2-aBHv-3" value="Logged offence successful&amp;nbsp;" style="text;html=1;strokeColor=none;fillColor=none;align=center;verticalAlign=middle;whiteSpace=wrap;rounded=0;fontStyle=1;fontFamily=Helvetica;fontSize=10;rotation=-90;" parent="1" vertex="1">
          <mxGeometry x="390" y="420" width="100" height="20" as="geometry" />
        </mxCell>
        <mxCell id="2qmD4o-6_xnF4s2-aBHv-7" value="" style="rounded=1;whiteSpace=wrap;html=1;labelBackgroundColor=#FFFFFF;fontFamily=Tahoma;fontSize=12;strokeWidth=2;" parent="1" vertex="1">
          <mxGeometry x="610" y="490" width="80" height="70" as="geometry" />
        </mxCell>
        <mxCell id="2qmD4o-6_xnF4s2-aBHv-8" value="VIEW SUBMITTED&lt;br&gt;OFFENCE&amp;nbsp;&lt;br&gt;TICKET" style="text;html=1;strokeColor=none;fillColor=none;align=center;verticalAlign=middle;whiteSpace=wrap;rounded=0;fontStyle=1;fontFamily=Helvetica;fontSize=12;" parent="1" vertex="1">
          <mxGeometry x="625" y="510" width="50" height="30" as="geometry" />
        </mxCell>
        <mxCell id="2qmD4o-6_xnF4s2-aBHv-10" value="" style="endArrow=classic;html=1;rounded=0;fontFamily=Tahoma;fontSize=12;fontColor=#000000;strokeWidth=1;fillColor=#fad9d5;strokeColor=#ae4132;" parent="1" edge="1">
          <mxGeometry width="50" height="50" relative="1" as="geometry">
            <mxPoint x="648.8199999999998" y="560" as="sourcePoint" />
            <mxPoint x="648.8199999999998" y="680" as="targetPoint" />
          </mxGeometry>
        </mxCell>
        <mxCell id="2qmD4o-6_xnF4s2-aBHv-12" value="" style="rounded=1;whiteSpace=wrap;html=1;labelBackgroundColor=#FFFFFF;fontFamily=Tahoma;fontSize=12;strokeWidth=2;" parent="1" vertex="1">
          <mxGeometry x="610" y="680" width="80" height="42.5" as="geometry" />
        </mxCell>
        <mxCell id="2qmD4o-6_xnF4s2-aBHv-13" value="UPLOAD ADDITIONAL EVIDENCE" style="text;html=1;strokeColor=none;fillColor=none;align=center;verticalAlign=middle;whiteSpace=wrap;rounded=0;fontStyle=1;fontFamily=Helvetica;fontSize=12;" parent="1" vertex="1">
          <mxGeometry x="610" y="686.25" width="80" height="30" as="geometry" />
        </mxCell>
        <mxCell id="2qmD4o-6_xnF4s2-aBHv-14" value="click on&lt;br&gt;ADD MORE FILES btn" style="text;html=1;strokeColor=none;fillColor=none;align=center;verticalAlign=middle;whiteSpace=wrap;rounded=0;fontStyle=1;fontFamily=Helvetica;fontSize=10;rotation=-90;" parent="1" vertex="1">
          <mxGeometry x="605" y="610" width="110" height="20" as="geometry" />
        </mxCell>
        <mxCell id="xFg3Ed7CWFBbbx4mJEgr-1" value="" style="rounded=1;whiteSpace=wrap;html=1;labelBackgroundColor=#FFFFFF;fontFamily=Tahoma;fontSize=12;strokeWidth=2;" parent="1" vertex="1">
          <mxGeometry x="700" y="490" width="110" height="70" as="geometry" />
        </mxCell>
        <mxCell id="xFg3Ed7CWFBbbx4mJEgr-2" value="EDIT AND SUBMIT CHANGES TO OFFENCES" style="text;html=1;strokeColor=none;fillColor=none;align=center;verticalAlign=middle;whiteSpace=wrap;rounded=0;fontStyle=1;fontFamily=Helvetica;fontSize=12;" parent="1" vertex="1">
          <mxGeometry x="700" y="510" width="110" height="30" as="geometry" />
        </mxCell>
        <mxCell id="xFg3Ed7CWFBbbx4mJEgr-3" value="click on certain entry&amp;nbsp;" style="text;html=1;strokeColor=none;fillColor=none;align=center;verticalAlign=middle;whiteSpace=wrap;rounded=0;fontStyle=1;fontFamily=Helvetica;fontSize=10;rotation=-90;" parent="1" vertex="1">
          <mxGeometry x="610" y="420" width="110" height="20" as="geometry" />
        </mxCell>
        <mxCell id="-ptn2rf07PZdwjouz5XI-9" value="LOGIN ACCEPTED&amp;nbsp;&lt;br&gt;&lt;br&gt;LOGIN REJECTED" style="text;html=1;strokeColor=none;fillColor=none;align=center;verticalAlign=middle;whiteSpace=wrap;rounded=0;fontStyle=1;fontFamily=Helvetica;fontSize=12;" parent="1" vertex="1">
          <mxGeometry x="400" y="80" width="140" height="30" as="geometry" />
        </mxCell>
        <mxCell id="xFg3Ed7CWFBbbx4mJEgr-9" value="" style="endArrow=classic;startArrow=classic;html=1;rounded=0;fontFamily=Tahoma;fontSize=10;fontColor=#000000;strokeWidth=1;" parent="1" edge="1">
          <mxGeometry width="50" height="50" relative="1" as="geometry">
            <mxPoint x="400" y="94.41" as="sourcePoint" />
            <mxPoint x="540" y="94.41" as="targetPoint" />
          </mxGeometry>
        </mxCell>
        <mxCell id="xFg3Ed7CWFBbbx4mJEgr-13" value="" style="endArrow=none;html=1;rounded=0;fontFamily=Tahoma;fontSize=10;fontColor=#FF0000;strokeWidth=1;" parent="1" edge="1">
          <mxGeometry width="50" height="50" relative="1" as="geometry">
            <mxPoint x="550" y="560" as="sourcePoint" />
            <mxPoint x="550" y="506.25" as="targetPoint" />
          </mxGeometry>
        </mxCell>
        <mxCell id="xFg3Ed7CWFBbbx4mJEgr-14" value="" style="endArrow=none;html=1;rounded=0;fontFamily=Tahoma;fontSize=10;fontColor=#FF0000;strokeWidth=1;" parent="1" edge="1">
          <mxGeometry width="50" height="50" relative="1" as="geometry">
            <mxPoint x="460" y="560" as="sourcePoint" />
            <mxPoint x="550" y="560" as="targetPoint" />
          </mxGeometry>
        </mxCell>
        <mxCell id="xFg3Ed7CWFBbbx4mJEgr-16" value="" style="endArrow=none;html=1;rounded=0;fontFamily=Tahoma;fontSize=10;fontColor=#FF0000;strokeWidth=1;" parent="1" edge="1">
          <mxGeometry width="50" height="50" relative="1" as="geometry">
            <mxPoint x="460" y="560" as="sourcePoint" />
            <mxPoint x="460" y="540" as="targetPoint" />
          </mxGeometry>
        </mxCell>
        <mxCell id="xFg3Ed7CWFBbbx4mJEgr-18" value="" style="endArrow=classic;html=1;rounded=0;fontFamily=Tahoma;fontSize=10;fontColor=#FF0000;strokeWidth=1;" parent="1" edge="1">
          <mxGeometry width="50" height="50" relative="1" as="geometry">
            <mxPoint x="550" y="500" as="sourcePoint" />
            <mxPoint x="510" y="500" as="targetPoint" />
          </mxGeometry>
        </mxCell>
        <mxCell id="xFg3Ed7CWFBbbx4mJEgr-19" value="unsuccessful" style="text;html=1;strokeColor=none;fillColor=none;align=center;verticalAlign=middle;whiteSpace=wrap;rounded=0;fontStyle=1;fontFamily=Helvetica;fontSize=10;rotation=0;" parent="1" vertex="1">
          <mxGeometry x="460" y="560" width="90" height="20" as="geometry" />
        </mxCell>
        <mxCell id="xFg3Ed7CWFBbbx4mJEgr-20" value="" style="endArrow=classic;html=1;rounded=0;fontFamily=Tahoma;fontSize=10;fontColor=#FF0000;strokeWidth=1;fillColor=#fad9d5;strokeColor=#ae4132;" parent="1" edge="1">
          <mxGeometry width="50" height="50" relative="1" as="geometry">
            <mxPoint x="739.29" y="490" as="sourcePoint" />
            <mxPoint x="739.29" y="370" as="targetPoint" />
          </mxGeometry>
        </mxCell>
        <mxCell id="xFg3Ed7CWFBbbx4mJEgr-21" value="successfully edited offences&lt;br&gt;back btn&lt;br&gt;" style="text;html=1;strokeColor=none;fillColor=none;align=center;verticalAlign=middle;whiteSpace=wrap;rounded=0;fontStyle=1;fontFamily=Helvetica;fontSize=10;rotation=-90;" parent="1" vertex="1">
          <mxGeometry x="710" y="420" width="110" height="20" as="geometry" />
        </mxCell>
        <mxCell id="xFg3Ed7CWFBbbx4mJEgr-22" value="" style="endArrow=classic;html=1;rounded=0;fontFamily=Tahoma;fontSize=10;fontColor=#000000;strokeWidth=1;fillColor=#fad9d5;strokeColor=#ae4132;" parent="1" edge="1">
          <mxGeometry width="50" height="50" relative="1" as="geometry">
            <mxPoint x="640" y="680" as="sourcePoint" />
            <mxPoint x="640" y="560" as="targetPoint" />
          </mxGeometry>
        </mxCell>
        <mxCell id="xFg3Ed7CWFBbbx4mJEgr-23" value="click on&amp;nbsp;&lt;br&gt;BACK btn" style="text;html=1;strokeColor=none;fillColor=none;align=center;verticalAlign=middle;whiteSpace=wrap;rounded=0;fontStyle=1;fontFamily=Helvetica;fontSize=10;rotation=-90;" parent="1" vertex="1">
          <mxGeometry x="570" y="610" width="100" height="20" as="geometry" />
        </mxCell>
        <mxCell id="xFg3Ed7CWFBbbx4mJEgr-24" value="" style="endArrow=classic;html=1;rounded=0;fontFamily=Tahoma;fontSize=10;fontColor=#000000;strokeWidth=1;fillColor=#fad9d5;strokeColor=#ae4132;" parent="1" edge="1">
          <mxGeometry width="50" height="50" relative="1" as="geometry">
            <mxPoint x="640" y="490" as="sourcePoint" />
            <mxPoint x="640" y="370" as="targetPoint" />
          </mxGeometry>
        </mxCell>
        <mxCell id="xFg3Ed7CWFBbbx4mJEgr-25" value="click on&amp;nbsp;&lt;br&gt;BACK btn" style="text;html=1;strokeColor=none;fillColor=none;align=center;verticalAlign=middle;whiteSpace=wrap;rounded=0;fontStyle=1;fontFamily=Helvetica;fontSize=10;rotation=-90;" parent="1" vertex="1">
          <mxGeometry x="575" y="420" width="100" height="20" as="geometry" />
        </mxCell>
        <mxCell id="ZO4mUv8P9YS9mDR_sDP--1" value="LEGEND" style="swimlane;fontStyle=5;childLayout=stackLayout;horizontal=1;startSize=30;horizontalStack=0;resizeParent=1;resizeParentMax=0;resizeLast=0;collapsible=1;marginBottom=0;" vertex="1" parent="1">
          <mxGeometry x="980" y="25" width="140" height="90" as="geometry" />
        </mxCell>
        <mxCell id="ZO4mUv8P9YS9mDR_sDP--2" value="ADMIN USER" style="text;strokeColor=none;fillColor=none;align=left;verticalAlign=middle;spacingLeft=4;spacingRight=4;overflow=hidden;points=[[0,0.5],[1,0.5]];portConstraint=eastwest;rotatable=0;fontColor=#FF0000;" vertex="1" parent="ZO4mUv8P9YS9mDR_sDP--1">
          <mxGeometry y="30" width="140" height="30" as="geometry" />
        </mxCell>
        <mxCell id="ZO4mUv8P9YS9mDR_sDP--3" value="STUDENT USER" style="text;strokeColor=none;fillColor=none;align=left;verticalAlign=middle;spacingLeft=4;spacingRight=4;overflow=hidden;points=[[0,0.5],[1,0.5]];portConstraint=eastwest;rotatable=0;" vertex="1" parent="ZO4mUv8P9YS9mDR_sDP--1">
          <mxGeometry y="60" width="140" height="30" as="geometry" />
        </mxCell>
      </root>
    </mxGraphModel>
  </diagram>
  <diagram id="m9nrpeyEsRtQRHQ_rDp8" name="ActivityDiagram">
    <mxGraphModel dx="946" dy="559" grid="1" gridSize="10" guides="1" tooltips="1" connect="1" arrows="1" fold="1" page="1" pageScale="1" pageWidth="827" pageHeight="1169" math="0" shadow="0">
      <root>
        <mxCell id="0" />
        <mxCell id="1" parent="0" />
        <mxCell id="RgGfn6y9HGmAGj5kxXZG-2" value="" style="endArrow=classic;html=1;rounded=0;fontFamily=Tahoma;fontSize=10;fontColor=#FF0000;strokeWidth=1;startArrow=none;" parent="1" source="j3c2VyJktfX7IMuLNSg2-26" edge="1">
          <mxGeometry width="50" height="50" relative="1" as="geometry">
            <mxPoint x="414" y="50" as="sourcePoint" />
            <mxPoint x="414" y="90" as="targetPoint" />
          </mxGeometry>
        </mxCell>
        <mxCell id="j3c2VyJktfX7IMuLNSg2-1" value="" style="rounded=1;whiteSpace=wrap;html=1;labelBackgroundColor=#FFFFFF;fontFamily=Tahoma;fontSize=10;strokeWidth=2;" parent="1" vertex="1">
          <mxGeometry x="334.5" y="90" width="159" height="40" as="geometry" />
        </mxCell>
        <mxCell id="j3c2VyJktfX7IMuLNSg2-2" value="User enters login name and password" style="text;html=1;strokeColor=none;fillColor=none;align=center;verticalAlign=middle;whiteSpace=wrap;rounded=0;labelBackgroundColor=#FFFFFF;fontFamily=Helvetica;fontSize=9;fontColor=#000000;fontStyle=1" parent="1" vertex="1">
          <mxGeometry x="354" y="95" width="120" height="30" as="geometry" />
        </mxCell>
        <mxCell id="j3c2VyJktfX7IMuLNSg2-3" value="" style="endArrow=classic;html=1;rounded=0;fontFamily=Tahoma;fontSize=10;fontColor=#FF0000;strokeWidth=1;" parent="1" edge="1">
          <mxGeometry width="50" height="50" relative="1" as="geometry">
            <mxPoint x="414" y="130" as="sourcePoint" />
            <mxPoint x="414" y="170" as="targetPoint" />
          </mxGeometry>
        </mxCell>
        <mxCell id="j3c2VyJktfX7IMuLNSg2-4" value="" style="rhombus;whiteSpace=wrap;html=1;labelBackgroundColor=#FFFFFF;fontFamily=Helvetica;fontSize=12;strokeWidth=2;" parent="1" vertex="1">
          <mxGeometry x="359.5" y="170" width="109" height="100" as="geometry" />
        </mxCell>
        <mxCell id="j3c2VyJktfX7IMuLNSg2-6" value="CORRECT LOGIN AND PASSWORD" style="text;html=1;fillColor=none;align=center;verticalAlign=middle;whiteSpace=wrap;rounded=0;labelBackgroundColor=#FFFFFF;fontFamily=Helvetica;fontSize=9;fontStyle=1" parent="1" vertex="1">
          <mxGeometry x="369" y="205" width="90" height="30" as="geometry" />
        </mxCell>
        <mxCell id="j3c2VyJktfX7IMuLNSg2-7" value="" style="endArrow=classic;html=1;rounded=0;fontFamily=Helvetica;fontSize=9;fontColor=#000000;strokeWidth=1;" parent="1" edge="1">
          <mxGeometry width="50" height="50" relative="1" as="geometry">
            <mxPoint x="468.5" y="220" as="sourcePoint" />
            <mxPoint x="560" y="220" as="targetPoint" />
          </mxGeometry>
        </mxCell>
        <mxCell id="j3c2VyJktfX7IMuLNSg2-8" value="" style="rounded=1;whiteSpace=wrap;html=1;labelBackgroundColor=#FFFFFF;fontFamily=Tahoma;fontSize=10;strokeWidth=2;" parent="1" vertex="1">
          <mxGeometry x="560" y="200" width="159" height="40" as="geometry" />
        </mxCell>
        <mxCell id="j3c2VyJktfX7IMuLNSg2-9" value="INVALID LOGIN USERNAME / PASSWORD" style="text;html=1;strokeColor=none;fillColor=none;align=center;verticalAlign=middle;whiteSpace=wrap;rounded=0;labelBackgroundColor=#FFFFFF;fontFamily=Helvetica;fontSize=9;fontColor=#000000;fontStyle=1" parent="1" vertex="1">
          <mxGeometry x="579.5" y="205" width="120" height="30" as="geometry" />
        </mxCell>
        <mxCell id="j3c2VyJktfX7IMuLNSg2-10" value="no" style="text;html=1;strokeColor=none;fillColor=none;align=center;verticalAlign=middle;whiteSpace=wrap;rounded=0;labelBackgroundColor=#FFFFFF;fontFamily=Helvetica;fontSize=9;fontColor=#000000;fontStyle=1" parent="1" vertex="1">
          <mxGeometry x="480" y="200" width="40" height="20" as="geometry" />
        </mxCell>
        <mxCell id="j3c2VyJktfX7IMuLNSg2-12" value="" style="endArrow=classic;html=1;rounded=0;fontFamily=Helvetica;fontSize=9;fontColor=#000000;strokeWidth=1;entryX=0;entryY=1;entryDx=0;entryDy=0;" parent="1" edge="1">
          <mxGeometry width="50" height="50" relative="1" as="geometry">
            <mxPoint x="413" y="270" as="sourcePoint" />
            <mxPoint x="414" y="320" as="targetPoint" />
          </mxGeometry>
        </mxCell>
        <mxCell id="j3c2VyJktfX7IMuLNSg2-14" value="" style="rounded=1;whiteSpace=wrap;html=1;labelBackgroundColor=#FFFFFF;fontFamily=Tahoma;fontSize=10;strokeWidth=2;" parent="1" vertex="1">
          <mxGeometry x="334.5" y="320" width="159" height="40" as="geometry" />
        </mxCell>
        <mxCell id="j3c2VyJktfX7IMuLNSg2-15" value="USER SUCCESSFULLY LOGGED IN" style="text;html=1;strokeColor=none;fillColor=none;align=center;verticalAlign=middle;whiteSpace=wrap;rounded=0;labelBackgroundColor=#FFFFFF;fontFamily=Helvetica;fontSize=9;fontColor=#000000;fontStyle=1" parent="1" vertex="1">
          <mxGeometry x="354" y="325" width="120" height="30" as="geometry" />
        </mxCell>
        <mxCell id="j3c2VyJktfX7IMuLNSg2-17" value="" style="endArrow=classic;html=1;rounded=0;fontFamily=Helvetica;fontSize=9;fontColor=#000000;strokeWidth=1;entryX=0;entryY=1;entryDx=0;entryDy=0;" parent="1" edge="1">
          <mxGeometry width="50" height="50" relative="1" as="geometry">
            <mxPoint x="413" y="360" as="sourcePoint" />
            <mxPoint x="414" y="410" as="targetPoint" />
          </mxGeometry>
        </mxCell>
        <mxCell id="j3c2VyJktfX7IMuLNSg2-18" value="yes" style="text;html=1;strokeColor=none;fillColor=none;align=center;verticalAlign=middle;whiteSpace=wrap;rounded=0;labelBackgroundColor=#FFFFFF;fontFamily=Helvetica;fontSize=9;fontColor=#000000;fontStyle=1" parent="1" vertex="1">
          <mxGeometry x="414" y="280" width="40" height="20" as="geometry" />
        </mxCell>
        <mxCell id="j3c2VyJktfX7IMuLNSg2-19" value="" style="rounded=1;whiteSpace=wrap;html=1;labelBackgroundColor=#FFFFFF;fontFamily=Tahoma;fontSize=10;strokeWidth=2;" parent="1" vertex="1">
          <mxGeometry x="334.5" y="410" width="159" height="40" as="geometry" />
        </mxCell>
        <mxCell id="j3c2VyJktfX7IMuLNSg2-20" value="MENU PAGE" style="text;html=1;strokeColor=none;fillColor=none;align=center;verticalAlign=middle;whiteSpace=wrap;rounded=0;labelBackgroundColor=#FFFFFF;fontFamily=Helvetica;fontSize=9;fontColor=#000000;fontStyle=1" parent="1" vertex="1">
          <mxGeometry x="354" y="415" width="120" height="30" as="geometry" />
        </mxCell>
        <mxCell id="j3c2VyJktfX7IMuLNSg2-21" value="" style="endArrow=none;html=1;rounded=0;fontFamily=Helvetica;fontSize=9;fontColor=#000000;strokeWidth=1;" parent="1" edge="1">
          <mxGeometry width="50" height="50" relative="1" as="geometry">
            <mxPoint x="640" y="200" as="sourcePoint" />
            <mxPoint x="640" y="100" as="targetPoint" />
          </mxGeometry>
        </mxCell>
        <mxCell id="j3c2VyJktfX7IMuLNSg2-24" value="" style="endArrow=classic;html=1;rounded=0;fontFamily=Helvetica;fontSize=9;fontColor=#000000;strokeWidth=1;" parent="1" edge="1">
          <mxGeometry width="50" height="50" relative="1" as="geometry">
            <mxPoint x="640" y="100" as="sourcePoint" />
            <mxPoint x="493.5" y="100" as="targetPoint" />
          </mxGeometry>
        </mxCell>
        <mxCell id="j3c2VyJktfX7IMuLNSg2-26" value="" style="ellipse;whiteSpace=wrap;html=1;aspect=fixed;fontFamily=Tahoma;fontSize=12;strokeWidth=3;labelBackgroundColor=#000000;fillColor=#000000;strokeColor=#000000;" parent="1" vertex="1">
          <mxGeometry x="404" y="41" width="19" height="19" as="geometry" />
        </mxCell>
        <mxCell id="j3c2VyJktfX7IMuLNSg2-27" value="" style="endArrow=none;html=1;rounded=0;fontFamily=Tahoma;fontSize=10;fontColor=#FF0000;strokeWidth=1;" parent="1" target="j3c2VyJktfX7IMuLNSg2-26" edge="1">
          <mxGeometry width="50" height="50" relative="1" as="geometry">
            <mxPoint x="414" y="50" as="sourcePoint" />
            <mxPoint x="414" y="90" as="targetPoint" />
          </mxGeometry>
        </mxCell>
        <mxCell id="j3c2VyJktfX7IMuLNSg2-28" value="" style="rounded=1;whiteSpace=wrap;html=1;labelBackgroundColor=#FFFFFF;fontFamily=Helvetica;fontSize=9;fontColor=#000000;strokeColor=#000000;strokeWidth=2;fillColor=#000000;" parent="1" vertex="1">
          <mxGeometry x="200" y="480" width="470" height="10" as="geometry" />
        </mxCell>
        <mxCell id="j3c2VyJktfX7IMuLNSg2-32" value="" style="endArrow=classic;html=1;rounded=0;fontFamily=Helvetica;fontSize=9;fontColor=#000000;strokeWidth=1;" parent="1" edge="1">
          <mxGeometry width="50" height="50" relative="1" as="geometry">
            <mxPoint x="414" y="450" as="sourcePoint" />
            <mxPoint x="414" y="480" as="targetPoint" />
          </mxGeometry>
        </mxCell>
        <mxCell id="j3c2VyJktfX7IMuLNSg2-34" value="" style="endArrow=classic;html=1;rounded=0;fontFamily=Helvetica;fontSize=9;fontColor=#000000;strokeWidth=1;" parent="1" edge="1">
          <mxGeometry width="50" height="50" relative="1" as="geometry">
            <mxPoint x="240" y="490" as="sourcePoint" />
            <mxPoint x="200" y="560" as="targetPoint" />
          </mxGeometry>
        </mxCell>
        <mxCell id="j3c2VyJktfX7IMuLNSg2-35" value="" style="endArrow=classic;html=1;rounded=0;fontFamily=Helvetica;fontSize=9;fontColor=#000000;strokeWidth=1;" parent="1" edge="1">
          <mxGeometry width="50" height="50" relative="1" as="geometry">
            <mxPoint x="640" y="490" as="sourcePoint" />
            <mxPoint x="686" y="560" as="targetPoint" />
          </mxGeometry>
        </mxCell>
        <mxCell id="j3c2VyJktfX7IMuLNSg2-36" value="" style="endArrow=classic;html=1;rounded=0;fontFamily=Helvetica;fontSize=9;fontColor=#000000;strokeWidth=1;" parent="1" edge="1">
          <mxGeometry width="50" height="50" relative="1" as="geometry">
            <mxPoint x="294.5" y="490" as="sourcePoint" />
            <mxPoint x="294.5" y="570" as="targetPoint" />
          </mxGeometry>
        </mxCell>
        <mxCell id="bMV59P76bKrIXZ4ouYrf-1" value="" style="endArrow=classic;html=1;rounded=0;fontFamily=Helvetica;fontSize=9;fontColor=#000000;strokeWidth=1;" parent="1" edge="1">
          <mxGeometry width="50" height="50" relative="1" as="geometry">
            <mxPoint x="394.5" y="490" as="sourcePoint" />
            <mxPoint x="394.5" y="570" as="targetPoint" />
          </mxGeometry>
        </mxCell>
        <mxCell id="bMV59P76bKrIXZ4ouYrf-2" value="" style="endArrow=classic;html=1;rounded=0;fontFamily=Helvetica;fontSize=9;fontColor=#000000;strokeWidth=1;" parent="1" edge="1">
          <mxGeometry width="50" height="50" relative="1" as="geometry">
            <mxPoint x="498.5" y="490" as="sourcePoint" />
            <mxPoint x="498.5" y="570" as="targetPoint" />
          </mxGeometry>
        </mxCell>
        <mxCell id="bMV59P76bKrIXZ4ouYrf-3" value="" style="endArrow=classic;html=1;rounded=0;fontFamily=Helvetica;fontSize=9;fontColor=#000000;strokeWidth=1;" parent="1" edge="1">
          <mxGeometry width="50" height="50" relative="1" as="geometry">
            <mxPoint x="594.5" y="490" as="sourcePoint" />
            <mxPoint x="594.5" y="570" as="targetPoint" />
          </mxGeometry>
        </mxCell>
        <mxCell id="I-4bkaI6x6a0myeKEa_n-3" value="" style="rounded=1;whiteSpace=wrap;html=1;labelBackgroundColor=#FFFFFF;fontFamily=Tahoma;fontSize=12;strokeWidth=2;" parent="1" vertex="1">
          <mxGeometry x="140" y="560" width="90" height="30" as="geometry" />
        </mxCell>
        <mxCell id="I-4bkaI6x6a0myeKEa_n-4" value="ABOUT PAGE" style="text;html=1;strokeColor=none;fillColor=none;align=center;verticalAlign=middle;whiteSpace=wrap;rounded=0;labelBackgroundColor=#FFFFFF;fontFamily=Helvetica;fontSize=9;fontColor=#000000;fontStyle=1" parent="1" vertex="1">
          <mxGeometry x="125" y="560" width="120" height="30" as="geometry" />
        </mxCell>
        <mxCell id="lpATJ3VgCD94q0L8aF8x-3" value="" style="rounded=1;whiteSpace=wrap;html=1;labelBackgroundColor=#FFFFFF;fontFamily=Tahoma;fontSize=12;strokeWidth=2;" parent="1" vertex="1">
          <mxGeometry x="250" y="570" width="90" height="30" as="geometry" />
        </mxCell>
        <mxCell id="lpATJ3VgCD94q0L8aF8x-4" value="" style="rounded=1;whiteSpace=wrap;html=1;labelBackgroundColor=#FFFFFF;fontFamily=Tahoma;fontSize=12;strokeWidth=2;" parent="1" vertex="1">
          <mxGeometry x="350" y="570" width="90" height="30" as="geometry" />
        </mxCell>
        <mxCell id="lpATJ3VgCD94q0L8aF8x-5" value="" style="rounded=1;whiteSpace=wrap;html=1;labelBackgroundColor=#FFFFFF;fontFamily=Tahoma;fontSize=12;strokeWidth=2;" parent="1" vertex="1">
          <mxGeometry x="454" y="570" width="90" height="30" as="geometry" />
        </mxCell>
        <mxCell id="lpATJ3VgCD94q0L8aF8x-6" value="" style="rounded=1;whiteSpace=wrap;html=1;labelBackgroundColor=#FFFFFF;fontFamily=Tahoma;fontSize=12;strokeWidth=2;" parent="1" vertex="1">
          <mxGeometry x="550" y="570" width="90" height="30" as="geometry" />
        </mxCell>
        <mxCell id="lpATJ3VgCD94q0L8aF8x-7" value="" style="rounded=1;whiteSpace=wrap;html=1;labelBackgroundColor=#FFFFFF;fontFamily=Tahoma;fontSize=12;strokeWidth=2;" parent="1" vertex="1">
          <mxGeometry x="660" y="560" width="90" height="30" as="geometry" />
        </mxCell>
        <mxCell id="tCvIufS4JNJoRR08FEWc-1" value="LOG OFFENCE" style="text;html=1;strokeColor=none;fillColor=none;align=center;verticalAlign=middle;whiteSpace=wrap;rounded=0;fontStyle=1;fontFamily=Helvetica;fontSize=9;" parent="1" vertex="1">
          <mxGeometry x="250" y="570" width="90" height="30" as="geometry" />
        </mxCell>
        <mxCell id="9xKRLTBp5egiVHoWzfRK-1" value="SHOW POSSIBLE OFFENCES PAGE" style="text;html=1;strokeColor=none;fillColor=none;align=center;verticalAlign=middle;whiteSpace=wrap;rounded=0;fontStyle=1;fontFamily=Helvetica;fontSize=9;" parent="1" vertex="1">
          <mxGeometry x="354" y="565" width="80" height="40" as="geometry" />
        </mxCell>
        <mxCell id="AEHkn2gmxUhZ7h8qx4uv-1" value="VIEW SUBMITTED&lt;br style=&quot;font-size: 9px;&quot;&gt;OFFENCES" style="text;html=1;align=center;verticalAlign=middle;whiteSpace=wrap;rounded=0;fontStyle=1;fontFamily=Helvetica;fontSize=9;" parent="1" vertex="1">
          <mxGeometry x="454" y="570" width="86" height="30" as="geometry" />
        </mxCell>
        <mxCell id="7sf0uPJMHmPUVu91RVrM-1" value="EDIT OFFENCES" style="text;html=1;strokeColor=none;fillColor=none;align=center;verticalAlign=middle;whiteSpace=wrap;rounded=0;fontStyle=1;fontFamily=Helvetica;fontSize=9;" parent="1" vertex="1">
          <mxGeometry x="550" y="570" width="90" height="30" as="geometry" />
        </mxCell>
        <mxCell id="dyJiC0dg6No-DgOT0Fxt-1" value="MANAGE&lt;br style=&quot;font-size: 9px;&quot;&gt;PLEDGES" style="text;html=1;strokeColor=none;fillColor=none;align=center;verticalAlign=middle;whiteSpace=wrap;rounded=0;fontStyle=1;fontFamily=Helvetica;fontSize=9;" parent="1" vertex="1">
          <mxGeometry x="660" y="560" width="90" height="30" as="geometry" />
        </mxCell>
        <mxCell id="r9AemZE5O3QS_PIgU7Uu-1" value="" style="endArrow=classic;html=1;rounded=0;fontFamily=Helvetica;fontSize=9;fontColor=#000000;strokeWidth=1;" edge="1" parent="1">
          <mxGeometry width="50" height="50" relative="1" as="geometry">
            <mxPoint x="294.5" y="600" as="sourcePoint" />
            <mxPoint x="294.5" y="680" as="targetPoint" />
          </mxGeometry>
        </mxCell>
        <mxCell id="r9AemZE5O3QS_PIgU7Uu-5" value="" style="rounded=1;whiteSpace=wrap;html=1;labelBackgroundColor=#FFFFFF;fontFamily=Tahoma;fontSize=12;strokeWidth=2;" vertex="1" parent="1">
          <mxGeometry x="250" y="680" width="90" height="30" as="geometry" />
        </mxCell>
        <mxCell id="r9AemZE5O3QS_PIgU7Uu-6" value="" style="rounded=1;whiteSpace=wrap;html=1;labelBackgroundColor=#FFFFFF;fontFamily=Tahoma;fontSize=12;strokeWidth=2;" vertex="1" parent="1">
          <mxGeometry x="455" y="680" width="90" height="30" as="geometry" />
        </mxCell>
        <mxCell id="r9AemZE5O3QS_PIgU7Uu-7" value="USER ENTERS THE OFFENCE DETAILS" style="text;html=1;strokeColor=none;fillColor=none;align=center;verticalAlign=middle;whiteSpace=wrap;rounded=0;fontStyle=1;fontFamily=Helvetica;fontSize=9;" vertex="1" parent="1">
          <mxGeometry x="250" y="680" width="90" height="30" as="geometry" />
        </mxCell>
        <mxCell id="r9AemZE5O3QS_PIgU7Uu-8" value="" style="endArrow=classic;html=1;rounded=0;fontFamily=Helvetica;fontSize=9;fontColor=#000000;strokeWidth=1;" edge="1" parent="1">
          <mxGeometry width="50" height="50" relative="1" as="geometry">
            <mxPoint x="499.5" y="600" as="sourcePoint" />
            <mxPoint x="499.5" y="680" as="targetPoint" />
          </mxGeometry>
        </mxCell>
        <mxCell id="r9AemZE5O3QS_PIgU7Uu-9" value="SELECT A ROW AND VIEW TICKET OFFENCE" style="text;html=1;strokeColor=none;fillColor=none;align=center;verticalAlign=middle;whiteSpace=wrap;rounded=0;fontStyle=1;fontFamily=Helvetica;fontSize=9;" vertex="1" parent="1">
          <mxGeometry x="455" y="680" width="90" height="30" as="geometry" />
        </mxCell>
        <mxCell id="r9AemZE5O3QS_PIgU7Uu-10" value="" style="rounded=1;whiteSpace=wrap;html=1;labelBackgroundColor=#FFFFFF;fontFamily=Tahoma;fontSize=12;strokeWidth=2;" vertex="1" parent="1">
          <mxGeometry x="455" y="960" width="90" height="30" as="geometry" />
        </mxCell>
        <mxCell id="r9AemZE5O3QS_PIgU7Uu-11" value="" style="rounded=1;whiteSpace=wrap;html=1;labelBackgroundColor=#FFFFFF;fontFamily=Tahoma;fontSize=12;strokeWidth=2;" vertex="1" parent="1">
          <mxGeometry x="540" y="730" width="40" height="20" as="geometry" />
        </mxCell>
        <mxCell id="r9AemZE5O3QS_PIgU7Uu-12" value="" style="endArrow=classic;html=1;rounded=0;fontFamily=Helvetica;fontSize=9;fontColor=#000000;strokeWidth=1;" edge="1" parent="1">
          <mxGeometry width="50" height="50" relative="1" as="geometry">
            <mxPoint x="499.5" y="710" as="sourcePoint" />
            <mxPoint x="499.5" y="790" as="targetPoint" />
          </mxGeometry>
        </mxCell>
        <mxCell id="r9AemZE5O3QS_PIgU7Uu-13" value="" style="rhombus;whiteSpace=wrap;html=1;" vertex="1" parent="1">
          <mxGeometry x="449" y="790" width="100" height="90" as="geometry" />
        </mxCell>
        <mxCell id="r9AemZE5O3QS_PIgU7Uu-14" value="WOULD THE USER LIKE TO UPLOAD MORE EVIDENCE?" style="text;html=1;strokeColor=none;fillColor=none;align=center;verticalAlign=middle;whiteSpace=wrap;rounded=0;fontStyle=1;fontFamily=Helvetica;fontSize=9;" vertex="1" parent="1">
          <mxGeometry x="462.5" y="820" width="73" height="30" as="geometry" />
        </mxCell>
        <mxCell id="r9AemZE5O3QS_PIgU7Uu-15" value="" style="endArrow=classic;html=1;rounded=0;fontFamily=Helvetica;fontSize=9;fontColor=#000000;strokeWidth=1;" edge="1" parent="1">
          <mxGeometry width="50" height="50" relative="1" as="geometry">
            <mxPoint x="499.5" y="880" as="sourcePoint" />
            <mxPoint x="499.5" y="960" as="targetPoint" />
          </mxGeometry>
        </mxCell>
        <mxCell id="r9AemZE5O3QS_PIgU7Uu-16" value="USER UPLOADS ADDITIONAL EVIDENCE&amp;nbsp;" style="text;html=1;strokeColor=none;fillColor=none;align=center;verticalAlign=middle;whiteSpace=wrap;rounded=0;fontStyle=1;fontFamily=Helvetica;fontSize=9;" vertex="1" parent="1">
          <mxGeometry x="454" y="960" width="96" height="30" as="geometry" />
        </mxCell>
        <mxCell id="r9AemZE5O3QS_PIgU7Uu-17" value="yes" style="text;html=1;strokeColor=none;fillColor=none;align=center;verticalAlign=middle;whiteSpace=wrap;rounded=0;labelBackgroundColor=#FFFFFF;fontFamily=Helvetica;fontSize=9;fontColor=#000000;fontStyle=1" vertex="1" parent="1">
          <mxGeometry x="500" y="900" width="40" height="20" as="geometry" />
        </mxCell>
        <mxCell id="r9AemZE5O3QS_PIgU7Uu-18" value="" style="endArrow=none;html=1;rounded=0;" edge="1" parent="1">
          <mxGeometry width="50" height="50" relative="1" as="geometry">
            <mxPoint x="417" y="834.5" as="sourcePoint" />
            <mxPoint x="451" y="834.5" as="targetPoint" />
          </mxGeometry>
        </mxCell>
        <mxCell id="r9AemZE5O3QS_PIgU7Uu-19" value="" style="endArrow=none;html=1;rounded=0;" edge="1" parent="1">
          <mxGeometry width="50" height="50" relative="1" as="geometry">
            <mxPoint x="414" y="830" as="sourcePoint" />
            <mxPoint x="415" y="700" as="targetPoint" />
          </mxGeometry>
        </mxCell>
        <mxCell id="r9AemZE5O3QS_PIgU7Uu-20" value="" style="endArrow=classic;html=1;rounded=0;" edge="1" parent="1">
          <mxGeometry width="50" height="50" relative="1" as="geometry">
            <mxPoint x="414" y="700" as="sourcePoint" />
            <mxPoint x="450" y="700" as="targetPoint" />
          </mxGeometry>
        </mxCell>
        <mxCell id="r9AemZE5O3QS_PIgU7Uu-21" value="no" style="text;html=1;strokeColor=none;fillColor=none;align=center;verticalAlign=middle;whiteSpace=wrap;rounded=0;labelBackgroundColor=#FFFFFF;fontFamily=Helvetica;fontSize=9;fontColor=#000000;fontStyle=1" vertex="1" parent="1">
          <mxGeometry x="414" y="750" width="40" height="20" as="geometry" />
        </mxCell>
        <mxCell id="r9AemZE5O3QS_PIgU7Uu-22" value="" style="endArrow=classic;html=1;rounded=0;fontFamily=Helvetica;fontSize=9;fontColor=#000000;strokeWidth=1;" edge="1" parent="1">
          <mxGeometry width="50" height="50" relative="1" as="geometry">
            <mxPoint x="600" y="600" as="sourcePoint" />
            <mxPoint x="600" y="680" as="targetPoint" />
          </mxGeometry>
        </mxCell>
        <mxCell id="r9AemZE5O3QS_PIgU7Uu-23" value="" style="rounded=1;whiteSpace=wrap;html=1;labelBackgroundColor=#FFFFFF;fontFamily=Helvetica;fontSize=9;fontColor=#000000;strokeColor=#000000;strokeWidth=2;fillColor=#000000;" vertex="1" parent="1">
          <mxGeometry x="560" y="680" width="90" height="10" as="geometry" />
        </mxCell>
        <mxCell id="r9AemZE5O3QS_PIgU7Uu-24" value="" style="endArrow=classic;html=1;rounded=0;" edge="1" parent="1">
          <mxGeometry width="50" height="50" relative="1" as="geometry">
            <mxPoint x="560" y="690" as="sourcePoint" />
            <mxPoint x="560" y="730" as="targetPoint" />
          </mxGeometry>
        </mxCell>
        <mxCell id="r9AemZE5O3QS_PIgU7Uu-28" value="" style="endArrow=classic;html=1;rounded=0;" edge="1" parent="1">
          <mxGeometry width="50" height="50" relative="1" as="geometry">
            <mxPoint x="604.5" y="690" as="sourcePoint" />
            <mxPoint x="604.5" y="730" as="targetPoint" />
          </mxGeometry>
        </mxCell>
        <mxCell id="r9AemZE5O3QS_PIgU7Uu-29" value="" style="endArrow=classic;html=1;rounded=0;" edge="1" parent="1">
          <mxGeometry width="50" height="50" relative="1" as="geometry">
            <mxPoint x="650" y="690" as="sourcePoint" />
            <mxPoint x="650" y="730" as="targetPoint" />
          </mxGeometry>
        </mxCell>
        <mxCell id="r9AemZE5O3QS_PIgU7Uu-30" value="" style="rounded=1;whiteSpace=wrap;html=1;labelBackgroundColor=#FFFFFF;fontFamily=Tahoma;fontSize=12;strokeWidth=2;" vertex="1" parent="1">
          <mxGeometry x="585" y="730" width="40" height="20" as="geometry" />
        </mxCell>
        <mxCell id="r9AemZE5O3QS_PIgU7Uu-31" value="" style="rounded=1;whiteSpace=wrap;html=1;labelBackgroundColor=#FFFFFF;fontFamily=Tahoma;fontSize=12;strokeWidth=2;" vertex="1" parent="1">
          <mxGeometry x="630" y="730" width="40" height="20" as="geometry" />
        </mxCell>
        <mxCell id="r9AemZE5O3QS_PIgU7Uu-32" value="ADD" style="text;html=1;strokeColor=none;fillColor=none;align=center;verticalAlign=middle;whiteSpace=wrap;rounded=0;fontStyle=1;fontFamily=Helvetica;fontSize=9;" vertex="1" parent="1">
          <mxGeometry x="547" y="735" width="26" height="10" as="geometry" />
        </mxCell>
        <mxCell id="r9AemZE5O3QS_PIgU7Uu-35" value="EDIT" style="text;html=1;strokeColor=none;fillColor=none;align=center;verticalAlign=middle;whiteSpace=wrap;rounded=0;fontStyle=1;fontFamily=Helvetica;fontSize=9;" vertex="1" parent="1">
          <mxGeometry x="592" y="735" width="26" height="10" as="geometry" />
        </mxCell>
        <mxCell id="r9AemZE5O3QS_PIgU7Uu-36" value="DELETE" style="text;html=1;strokeColor=none;fillColor=none;align=center;verticalAlign=middle;whiteSpace=wrap;rounded=0;fontStyle=1;fontFamily=Helvetica;fontSize=9;" vertex="1" parent="1">
          <mxGeometry x="637" y="735" width="26" height="10" as="geometry" />
        </mxCell>
        <mxCell id="r9AemZE5O3QS_PIgU7Uu-37" value="" style="endArrow=classic;html=1;rounded=0;fontFamily=Helvetica;fontSize=9;fontColor=#000000;strokeWidth=1;" edge="1" parent="1">
          <mxGeometry width="50" height="50" relative="1" as="geometry">
            <mxPoint x="294.5" y="710" as="sourcePoint" />
            <mxPoint x="294.5" y="790" as="targetPoint" />
          </mxGeometry>
        </mxCell>
        <mxCell id="r9AemZE5O3QS_PIgU7Uu-39" value="" style="rounded=1;whiteSpace=wrap;html=1;labelBackgroundColor=#FFFFFF;fontFamily=Tahoma;fontSize=12;strokeWidth=2;" vertex="1" parent="1">
          <mxGeometry x="250" y="790" width="90" height="30" as="geometry" />
        </mxCell>
        <mxCell id="r9AemZE5O3QS_PIgU7Uu-40" value="DELIVER TO &amp;nbsp;THE INVESTIGATION PROCESS" style="text;html=1;strokeColor=none;fillColor=none;align=center;verticalAlign=middle;whiteSpace=wrap;rounded=0;fontStyle=1;fontFamily=Helvetica;fontSize=9;" vertex="1" parent="1">
          <mxGeometry x="245" y="790" width="100" height="30" as="geometry" />
        </mxCell>
      </root>
    </mxGraphModel>
  </diagram>
  <diagram id="TdYmuremJrcN5x42mLCB" name="SequenceDiagram">
    <mxGraphModel dx="1113" dy="658" grid="1" gridSize="10" guides="1" tooltips="1" connect="1" arrows="1" fold="1" page="1" pageScale="1" pageWidth="827" pageHeight="1169" math="0" shadow="0">
      <root>
        <mxCell id="0" />
        <mxCell id="1" parent="0" />
        <mxCell id="0h68FbuDJ4_GuSbd2dgf-1" value="" style="shape=umlLifeline;participant=umlActor;perimeter=lifelinePerimeter;whiteSpace=wrap;html=1;container=1;collapsible=0;recursiveResize=0;verticalAlign=top;spacingTop=36;outlineConnect=0;fontColor=#FF0000;" vertex="1" parent="1">
          <mxGeometry x="110" y="160" width="20" height="300" as="geometry" />
        </mxCell>
      </root>
    </mxGraphModel>
  </diagram>
  <diagram id="Xc4PC8hhRLX5fbDxF97M" name="UseCaseDiagram">
    <mxGraphModel dx="1577" dy="932" grid="1" gridSize="10" guides="1" tooltips="1" connect="1" arrows="1" fold="1" page="1" pageScale="1" pageWidth="827" pageHeight="1169" math="0" shadow="0">
      <root>
        <mxCell id="0" />
        <mxCell id="1" parent="0" />
        <mxCell id="vWA7FN3uFNpcbS5IHSrB-1" value="&lt;font color=&quot;#000000&quot; size=&quot;1&quot;&gt;&lt;b style=&quot;font-size: 11px&quot;&gt;STUDENT&lt;/b&gt;&lt;/font&gt;" style="shape=umlActor;verticalLabelPosition=bottom;verticalAlign=top;html=1;fontColor=#FF0000;" vertex="1" parent="1">
          <mxGeometry x="120" y="300" width="30" height="60" as="geometry" />
        </mxCell>
        <mxCell id="8eQTi9ApSuUVq_3znXZK-1" value="" style="endArrow=none;html=1;rounded=0;fontSize=11;fontColor=#000000;" edge="1" parent="1">
          <mxGeometry width="50" height="50" relative="1" as="geometry">
            <mxPoint x="160" y="320" as="sourcePoint" />
            <mxPoint x="240" y="240" as="targetPoint" />
          </mxGeometry>
        </mxCell>
        <mxCell id="KKjfFRobmH7OFBw3VooO-2" value="" style="endArrow=none;html=1;rounded=0;fontSize=11;fontColor=#000000;" edge="1" parent="1">
          <mxGeometry width="50" height="50" relative="1" as="geometry">
            <mxPoint x="160" y="320" as="sourcePoint" />
            <mxPoint x="240" y="320" as="targetPoint" />
          </mxGeometry>
        </mxCell>
        <mxCell id="58Prib8r6f79N3j9p-M_-1" value="" style="endArrow=none;html=1;rounded=0;fontSize=11;fontColor=#000000;" edge="1" parent="1">
          <mxGeometry width="50" height="50" relative="1" as="geometry">
            <mxPoint x="160" y="320" as="sourcePoint" />
            <mxPoint x="240" y="400" as="targetPoint" />
          </mxGeometry>
        </mxCell>
        <mxCell id="58Prib8r6f79N3j9p-M_-2" value="" style="ellipse;whiteSpace=wrap;html=1;fontSize=11;fontColor=#000000;" vertex="1" parent="1">
          <mxGeometry x="240" y="210" width="100" height="50" as="geometry" />
        </mxCell>
        <mxCell id="58Prib8r6f79N3j9p-M_-3" value="" style="ellipse;whiteSpace=wrap;html=1;fontSize=11;fontColor=#000000;" vertex="1" parent="1">
          <mxGeometry x="240" y="290" width="100" height="50" as="geometry" />
        </mxCell>
        <mxCell id="58Prib8r6f79N3j9p-M_-4" value="" style="ellipse;whiteSpace=wrap;html=1;fontSize=11;fontColor=#000000;" vertex="1" parent="1">
          <mxGeometry x="240" y="380" width="100" height="50" as="geometry" />
        </mxCell>
        <mxCell id="58Prib8r6f79N3j9p-M_-5" value="SUBMIT TEST" style="text;html=1;strokeColor=none;fillColor=none;align=center;verticalAlign=middle;whiteSpace=wrap;rounded=0;fontSize=11;fontColor=#000000;" vertex="1" parent="1">
          <mxGeometry x="250" y="220" width="80" height="30" as="geometry" />
        </mxCell>
        <mxCell id="3Rc3ty4VZAbe6TN7iGey-1" value="VIEW POSSIBLE OFFENCES" style="text;html=1;strokeColor=none;fillColor=none;align=center;verticalAlign=middle;whiteSpace=wrap;rounded=0;fontSize=11;fontColor=#000000;" vertex="1" parent="1">
          <mxGeometry x="250" y="300" width="80" height="30" as="geometry" />
        </mxCell>
        <mxCell id="58UJLBOY43BCuRL8w00M-1" value="SUBMIT ACADEMIC DISHONESTY" style="text;html=1;strokeColor=none;fillColor=none;align=center;verticalAlign=middle;whiteSpace=wrap;rounded=0;fontSize=11;fontColor=#000000;" vertex="1" parent="1">
          <mxGeometry x="250" y="390" width="80" height="30" as="geometry" />
        </mxCell>
        <mxCell id="HITVU3hljChsdIez9klX-1" value="&lt;b&gt;ADMIN&lt;/b&gt;" style="shape=umlActor;verticalLabelPosition=bottom;verticalAlign=top;html=1;fontSize=11;fontColor=#000000;" vertex="1" parent="1">
          <mxGeometry x="600" y="400" width="30" height="60" as="geometry" />
        </mxCell>
        <mxCell id="HITVU3hljChsdIez9klX-7" value="" style="endArrow=none;html=1;rounded=0;fontSize=11;fontColor=#000000;" edge="1" parent="1">
          <mxGeometry width="50" height="50" relative="1" as="geometry">
            <mxPoint x="340" y="320" as="sourcePoint" />
            <mxPoint x="600" y="400" as="targetPoint" />
          </mxGeometry>
        </mxCell>
        <mxCell id="HITVU3hljChsdIez9klX-8" value="" style="endArrow=none;html=1;rounded=0;fontSize=11;fontColor=#000000;" edge="1" parent="1">
          <mxGeometry width="50" height="50" relative="1" as="geometry">
            <mxPoint x="340" y="400" as="sourcePoint" />
            <mxPoint x="600" y="400" as="targetPoint" />
          </mxGeometry>
        </mxCell>
        <mxCell id="HITVU3hljChsdIez9klX-9" value="" style="ellipse;whiteSpace=wrap;html=1;fontSize=11;fontColor=#000000;" vertex="1" parent="1">
          <mxGeometry x="240" y="470" width="100" height="50" as="geometry" />
        </mxCell>
        <mxCell id="pTS01u9-6aKHv0hyHfu1-1" value="" style="ellipse;whiteSpace=wrap;html=1;fontSize=11;fontColor=#000000;" vertex="1" parent="1">
          <mxGeometry x="240" y="560" width="100" height="50" as="geometry" />
        </mxCell>
        <mxCell id="pTS01u9-6aKHv0hyHfu1-2" value="" style="ellipse;whiteSpace=wrap;html=1;fontSize=11;fontColor=#000000;" vertex="1" parent="1">
          <mxGeometry x="240" y="650" width="100" height="50" as="geometry" />
        </mxCell>
        <mxCell id="pTS01u9-6aKHv0hyHfu1-3" value="" style="ellipse;whiteSpace=wrap;html=1;fontSize=11;fontColor=#000000;" vertex="1" parent="1">
          <mxGeometry x="240" y="740" width="100" height="50" as="geometry" />
        </mxCell>
        <mxCell id="pTS01u9-6aKHv0hyHfu1-4" value="" style="ellipse;whiteSpace=wrap;html=1;fontSize=11;fontColor=#000000;" vertex="1" parent="1">
          <mxGeometry x="240" y="830" width="100" height="50" as="geometry" />
        </mxCell>
        <mxCell id="pTS01u9-6aKHv0hyHfu1-5" value="" style="ellipse;whiteSpace=wrap;html=1;fontSize=11;fontColor=#000000;" vertex="1" parent="1">
          <mxGeometry x="240" y="920" width="100" height="50" as="geometry" />
        </mxCell>
        <mxCell id="pTS01u9-6aKHv0hyHfu1-6" value="" style="ellipse;whiteSpace=wrap;html=1;fontSize=11;fontColor=#000000;" vertex="1" parent="1">
          <mxGeometry x="240" y="1010" width="100" height="50" as="geometry" />
        </mxCell>
        <mxCell id="pTS01u9-6aKHv0hyHfu1-7" value="" style="ellipse;whiteSpace=wrap;html=1;fontSize=11;fontColor=#000000;" vertex="1" parent="1">
          <mxGeometry x="240" y="1100" width="100" height="50" as="geometry" />
        </mxCell>
        <mxCell id="pTS01u9-6aKHv0hyHfu1-8" value="CREATE TEST" style="text;html=1;strokeColor=none;fillColor=none;align=center;verticalAlign=middle;whiteSpace=wrap;rounded=0;fontSize=11;fontColor=#000000;" vertex="1" parent="1">
          <mxGeometry x="250" y="480" width="80" height="30" as="geometry" />
        </mxCell>
        <mxCell id="TJxxhlyvtMz4koKjtPZu-1" value="VIEW PLEDGES" style="text;html=1;strokeColor=none;fillColor=none;align=center;verticalAlign=middle;whiteSpace=wrap;rounded=0;fontSize=11;fontColor=#000000;" vertex="1" parent="1">
          <mxGeometry x="245" y="570" width="90" height="30" as="geometry" />
        </mxCell>
        <mxCell id="qr-a9cKASo8at5wWznqw-1" value="CREATE SIGNED PLEDGE" style="text;html=1;strokeColor=none;fillColor=none;align=center;verticalAlign=middle;whiteSpace=wrap;rounded=0;fontSize=11;fontColor=#000000;" vertex="1" parent="1">
          <mxGeometry x="225" y="660" width="130" height="30" as="geometry" />
        </mxCell>
        <mxCell id="GqHyt6xRTPpkPbJRtvpm-1" value="VIEW TEST REPORT" style="text;html=1;strokeColor=none;fillColor=none;align=center;verticalAlign=middle;whiteSpace=wrap;rounded=0;fontSize=11;fontColor=#000000;" vertex="1" parent="1">
          <mxGeometry x="250" y="750" width="80" height="30" as="geometry" />
        </mxCell>
        <mxCell id="GqHyt6xRTPpkPbJRtvpm-2" value="SCHEDULE HEARING" style="text;html=1;strokeColor=none;fillColor=none;align=center;verticalAlign=middle;whiteSpace=wrap;rounded=0;fontSize=11;fontColor=#000000;" vertex="1" parent="1">
          <mxGeometry x="257.5" y="840" width="65" height="30" as="geometry" />
        </mxCell>
        <mxCell id="Rl7orpMeotqLJQ8Msfkg-1" value="SUBMIT ADDITIONAL EVIDENCE" style="text;html=1;strokeColor=none;fillColor=none;align=center;verticalAlign=middle;whiteSpace=wrap;rounded=0;fontSize=11;fontColor=#000000;" vertex="1" parent="1">
          <mxGeometry x="250" y="930" width="80" height="30" as="geometry" />
        </mxCell>
        <mxCell id="S5sBjZGHj6uTgSG2b98W-1" value="EDIT OFFENCE LIST" style="text;html=1;strokeColor=none;fillColor=none;align=center;verticalAlign=middle;whiteSpace=wrap;rounded=0;fontSize=11;fontColor=#000000;" vertex="1" parent="1">
          <mxGeometry x="240" y="1020" width="100" height="30" as="geometry" />
        </mxCell>
        <mxCell id="H3pfAOnLJgK962MLtYep-1" value="VIEW SUBMITTED OFFENCES" style="text;html=1;strokeColor=none;fillColor=none;align=center;verticalAlign=middle;whiteSpace=wrap;rounded=0;fontSize=11;fontColor=#000000;" vertex="1" parent="1">
          <mxGeometry x="247" y="1110" width="86" height="30" as="geometry" />
        </mxCell>
        <mxCell id="RrsbnGFX3xF3-ogAq-cY-1" value="" style="endArrow=none;html=1;rounded=0;fontSize=11;fontColor=#000000;" edge="1" parent="1">
          <mxGeometry width="50" height="50" relative="1" as="geometry">
            <mxPoint x="340" y="490" as="sourcePoint" />
            <mxPoint x="600" y="400" as="targetPoint" />
          </mxGeometry>
        </mxCell>
        <mxCell id="RrsbnGFX3xF3-ogAq-cY-2" value="" style="endArrow=none;html=1;rounded=0;fontSize=11;fontColor=#000000;" edge="1" parent="1">
          <mxGeometry width="50" height="50" relative="1" as="geometry">
            <mxPoint x="340" y="580" as="sourcePoint" />
            <mxPoint x="600" y="400" as="targetPoint" />
          </mxGeometry>
        </mxCell>
        <mxCell id="RrsbnGFX3xF3-ogAq-cY-3" value="" style="endArrow=none;html=1;rounded=0;fontSize=11;fontColor=#000000;" edge="1" parent="1">
          <mxGeometry width="50" height="50" relative="1" as="geometry">
            <mxPoint x="340" y="670" as="sourcePoint" />
            <mxPoint x="600" y="400" as="targetPoint" />
          </mxGeometry>
        </mxCell>
        <mxCell id="RrsbnGFX3xF3-ogAq-cY-4" value="" style="endArrow=none;html=1;rounded=0;fontSize=11;fontColor=#000000;" edge="1" parent="1">
          <mxGeometry width="50" height="50" relative="1" as="geometry">
            <mxPoint x="340" y="760" as="sourcePoint" />
            <mxPoint x="600" y="400" as="targetPoint" />
          </mxGeometry>
        </mxCell>
        <mxCell id="RrsbnGFX3xF3-ogAq-cY-6" value="" style="endArrow=none;html=1;rounded=0;fontSize=11;fontColor=#000000;" edge="1" parent="1">
          <mxGeometry width="50" height="50" relative="1" as="geometry">
            <mxPoint x="340" y="850" as="sourcePoint" />
            <mxPoint x="600" y="400" as="targetPoint" />
          </mxGeometry>
        </mxCell>
        <mxCell id="RrsbnGFX3xF3-ogAq-cY-7" value="" style="endArrow=none;html=1;rounded=0;fontSize=11;fontColor=#000000;" edge="1" parent="1">
          <mxGeometry width="50" height="50" relative="1" as="geometry">
            <mxPoint x="340" y="940" as="sourcePoint" />
            <mxPoint x="600" y="400" as="targetPoint" />
          </mxGeometry>
        </mxCell>
        <mxCell id="RrsbnGFX3xF3-ogAq-cY-8" value="" style="endArrow=none;html=1;rounded=0;fontSize=11;fontColor=#000000;" edge="1" parent="1">
          <mxGeometry width="50" height="50" relative="1" as="geometry">
            <mxPoint x="340" y="1030" as="sourcePoint" />
            <mxPoint x="600" y="400" as="targetPoint" />
          </mxGeometry>
        </mxCell>
        <mxCell id="RrsbnGFX3xF3-ogAq-cY-9" value="" style="endArrow=none;html=1;rounded=0;fontSize=11;fontColor=#000000;" edge="1" parent="1">
          <mxGeometry width="50" height="50" relative="1" as="geometry">
            <mxPoint x="330" y="1110" as="sourcePoint" />
            <mxPoint x="600" y="400" as="targetPoint" />
          </mxGeometry>
        </mxCell>
      </root>
    </mxGraphModel>
  </diagram>
</mxfile>
